<svg width="40" height="40" fill="none" xmlns="http://www.w3.org/2000/svg"><path d="M18.015.906c-.734.164-1.68.516-2.28.852-.923.515-2.126 1.601-2.446 2.21-.219.407.101.876.594.876.21 0 .32-.078.695-.508 1.812-2.047 4.57-2.828 7.07-2 2.211.742 3.844 2.516 4.375 4.758.14.562.157.86.133 1.734-.031.938-.062 1.14-.289 1.797-.29.86-.492 1.234-1.078 2.016-.781 1.023-2.094 1.914-3.399 2.289-.82.234-2.18.289-3.039.117-2.586-.531-4.656-2.578-5.18-5.14-.156-.75-.156-1.962-.007-2.68.062-.297.117-.618.117-.711 0-.235-.32-.5-.601-.5-.57 0-.79.554-.86 2.164-.07 1.547.149 2.633.766 3.883 1.148 2.304 3.344 3.906 5.844 4.273.867.125 2.367.047 3.14-.156 2.969-.774 5.172-3.117 5.742-6.102.172-.867.149-2.328-.039-3.203-.508-2.313-2.039-4.25-4.187-5.313-1.172-.578-1.79-.718-3.281-.75-.922-.023-1.391.008-1.79.094z" fill="#000875"/><path d="M21.813 5.68c-.079.078-.875 1.015-1.766 2.078L18.43 9.695l-.72-.617c-1.015-.875-1.179-.937-1.57-.633-.156.117-.203.227-.203.453 0 .235.055.344.336.602.665.633 1.836 1.594 2.04 1.672.265.094.492.008.796-.328.344-.367 3.485-4.125 3.649-4.36.18-.257.164-.484-.031-.734-.196-.25-.665-.281-.915-.07zM6.906 16.992c-.554.117-1.015.336-1.375.656-.14.125-.39.258-.554.305-.954.266-1.602 1.031-1.907 2.258-.11.445-.132.945-.14 3.031 0 2.211.015 2.555.14 2.961.203.664.618 1.453 1.024 1.945l.343.422-.875.516c-.476.281-1.164.687-1.53.898-1.126.664-1.626 1.188-1.9 2-.109.328-.132.75-.132 2.703 0 2.22.008 2.329.156 2.524.094.117.297.242.453.289.188.047 2.258.078 5.782.078h5.484v.461c0 .54.078.79.32 1.016.157.148.274.164.985.164.93 0 1.117-.102 1.117-.586 0-.414-.219-.586-.75-.586h-.43l.024-1.938.023-1.93.219-.367c.226-.39.375-.515 1.234-1.03l.555-.337 1.25.805c1.11.719 1.297.813 1.601.813.204 0 .36.039.383.101.016.055-.226.664-.554 1.367-.336.727-.586 1.367-.586 1.508 0 .14.101.414.234.625l.234.383h-.82c-.734 0-.828.016-.977.172a.639.639 0 000 .828l.165.172h5.765c5.742 0 5.758 0 5.938-.164.242-.227.32-.477.32-1.016v-.46h5.492c3.516 0 5.586-.032 5.774-.079.156-.047.359-.172.453-.29.148-.194.156-.304.156-2.523 0-2.539-.031-2.75-.477-3.414-.351-.507-.765-.812-2.421-1.796l-1.547-.907.25-.297c.343-.398.734-1.07.96-1.625.297-.734.368-1.515.329-3.859-.032-1.727-.063-2.203-.172-2.555-.445-1.406-1.617-2.484-3.32-3.047-1.579-.53-3.32-.343-4.235.446-.14.133-.445.297-.664.367-1.21.398-1.765 1.375-1.922 3.406-.11 1.453-.039 4.203.125 4.79.164.6.508 1.265.969 1.874l.383.5-1.469.875c-.812.485-1.633.992-1.828 1.14l-.344.267-.476-.274c-.29-.172-.446-.32-.414-.375.03-.047.187-.258.351-.46.375-.477.805-1.368.961-1.97.18-.71.164-5.03-.023-5.75-.375-1.421-1.711-2.64-3.532-3.21-.484-.149-.757-.18-1.562-.18-1.149 0-1.742.164-2.39.656-.22.164-.579.36-.798.43-.742.25-1.343.945-1.68 1.945-.148.438-.163.711-.195 2.984-.015 1.688 0 2.649.063 2.97.11.577.594 1.609 1 2.116.164.211.32.422.351.47.032.054-.125.202-.414.374l-.476.274-.36-.274c-.195-.148-1.015-.664-1.82-1.14l-1.46-.868.382-.5c.21-.28.484-.718.61-.968.437-.86.468-1.11.468-3.915 0-2.382-.008-2.601-.164-3.046-.742-2.211-3.625-3.696-6.133-3.149zM9 18.273c1.234.32 2.305 1.102 2.734 2 .204.446.22.532.22 1.5v1.04h-.212c-.344 0-.805-.282-1.539-.93-1.148-1.024-1.75-1.258-3.21-1.258-1.509.008-1.891.29-2.196 1.617-.14.633-.29.883-.516.883-.164 0-.164-.016-.117-1.156.07-1.89.414-2.617 1.328-2.836.281-.063.516-.188.742-.399.664-.601 1.594-.757 2.766-.46zm24.148.079c.727.257 1.344.617 1.79 1.062.71.703.921 1.32.921 2.664v.735h-.25c-.382 0-.82-.258-1.578-.93-1.148-1.024-1.75-1.258-3.21-1.258-1.509.008-1.852.266-2.18 1.602-.164.656-.305.898-.532.898-.164 0-.164-.016-.117-1.156.031-.68.102-1.32.18-1.578.21-.72.656-1.172 1.265-1.29.172-.03.43-.187.649-.382.508-.461 1-.602 1.906-.563.422.024.883.102 1.156.196zm-12.132 1.656c.828.226 1.445.578 1.992 1.125.734.719.844 1.031.883 2.32l.03 1.078h-.226c-.367-.008-.812-.265-1.492-.875-1.25-1.117-1.844-1.343-3.445-1.297-.867.024-1.024.047-1.274.203-.336.211-.632.766-.773 1.422-.125.625-.273.852-.516.86-.156 0-.133-1.899.024-2.578.195-.852.617-1.336 1.273-1.446a.974.974 0 00.524-.289c.625-.656 1.797-.86 3-.523zM8.375 22.094c.203.101.672.46 1.055.804.804.72 1.445 1.079 2.086 1.141l.453.047-.031.906c-.024.867-.04.93-.329 1.516-.75 1.515-2.437 2.71-3.687 2.61-.79-.063-1.57-.485-2.383-1.298-.969-.976-1.398-1.922-1.398-3.117 0-.32.007-.328.257-.328.727-.008 1.29-.563 1.54-1.516.28-1.086.18-1.007 1.195-.968.71.023.945.062 1.242.203zm23.82 0c.196.093.703.476 1.125.851.867.75 1.399 1.04 2.078 1.094l.461.047v.477c0 1.343-.39 2.242-1.398 3.257-.531.524-.813.742-1.297.977-.57.273-.68.305-1.25.305s-.68-.032-1.25-.305c-.852-.414-1.828-1.39-2.25-2.235a4.453 4.453 0 01-.445-1.898c0-.273.015-.289.258-.289.554-.008 1.171-.46 1.414-1.055.062-.14.156-.46.203-.718.164-.774.117-.75 1.117-.711.71.023.945.062 1.234.203zm-11.883 1.718c.196.102.672.47 1.055.813.797.71 1.461 1.07 2.102 1.133l.437.047v.68c0 .46-.047.85-.156 1.187-.523 1.703-2.54 3.312-3.96 3.164-.884-.094-2.118-.883-2.798-1.797-.648-.852-.898-1.531-.898-2.414 0-.508.008-.531.187-.531.25 0 .664-.149.93-.328.273-.196.539-.727.71-1.43.079-.297.18-.594.227-.648.07-.086.29-.102.954-.079.703.024.921.063 1.21.203zM6.767 30.188c.007.008-.149.196-.352.422l-.367.414-.719-.468c-.398-.258-.734-.492-.742-.524-.008-.031.172-.172.398-.312l.422-.25.672.36c.375.194.688.358.688.358zm4.117-.64c.094.047.312.172.476.281l.305.188-.773.507-.774.5-.367-.414-.367-.406.555-.297c.304-.156.593-.328.64-.375.102-.101.102-.101.305.016zm18.539-.016c.047.047.336.219.64.375l.555.297-.367.414-.367.414-.774-.508-.773-.507.305-.188c.656-.414.664-.414.78-.297zm5.765.297l.305.188-.773.507-.774.508-.36-.422-.366-.414.68-.36c.726-.39.687-.39 1.288-.007zM8.578 31.656l-.086.375H7.672l-.086-.367c-.094-.36-.094-.36.203-.664l.29-.297.296.29c.29.296.29.296.203.663zm23.828 0l-.086.375h-.812l-.086-.375c-.086-.367-.078-.367.203-.664l.281-.289.297.29c.29.296.29.296.203.663zM4.617 31.61c1.063.688 1.242.774 1.531.766.266-.008.336.023.336.125 0 .07-.265.703-.586 1.398-.32.704-.585 1.344-.585 1.43 0 .086.109.352.242.578l.234.422H1.157l.03-1.86c.04-2.429.086-2.53 1.391-3.327.32-.203.64-.344.711-.328.07.015.664.375 1.328.796zm8.93-.492c.297.188.555.367.562.406.016.047-.187.204-.453.352-.898.508-1.5 1.258-1.703 2.125-.039.188-.078.781-.078 1.328v1h-1.492l.242-.453c.125-.242.234-.5.234-.563 0-.062-.28-.718-.617-1.445-.336-.734-.594-1.367-.578-1.414.016-.047.18-.086.367-.086.297 0 .492-.094 1.57-.789.68-.437 1.274-.797 1.32-.797.048 0 .329.157.626.336zm14.89.492c1.055.68 1.22.758 1.532.75.281 0 .343.024.343.141 0 .07-.265.71-.585 1.414-.32.703-.586 1.344-.586 1.43 0 .078.109.336.242.562l.234.422h-1.492v-.93c0-1.062-.078-1.562-.32-2.086-.227-.468-.852-1.085-1.47-1.437-.257-.148-.46-.305-.452-.352.047-.132 1.11-.742 1.242-.71.078.015.672.375 1.313.796zm8.915-.507c.734.43 1.078.742 1.273 1.164.14.312.156.554.188 2.203l.03 1.86h-4.632l.234-.423c.133-.226.242-.484.242-.562 0-.086-.265-.727-.585-1.43-.32-.703-.586-1.336-.586-1.414 0-.102.07-.133.336-.125.296.008.468-.078 1.578-.797.68-.437 1.265-.797 1.304-.797.04 0 .32.14.618.32zm-19.555.328c.242.14.562.304.703.36l.258.108-.406.415-.407.406-.71-.453c-.391-.25-.72-.485-.727-.524-.016-.047.719-.555.82-.57.016 0 .227.117.469.258zm5.297-.008c.234.14.414.281.398.32-.008.04-.336.274-.719.524l-.703.453-.406-.399-.414-.398.688-.367c.375-.203.695-.375.703-.375.015-.008.218.11.453.242zm-2.82 1.289c.304.336.304.336.187.742-.078.29-.086.297-.461.297s-.383-.008-.46-.297a2.55 2.55 0 01-.087-.351c0-.055.477-.672.524-.68.015 0 .14.133.296.289zm5.687.445c.281.188.539.453.664.664l.21.36.024 1.93.024 1.937h-4.617l.234-.383c.133-.203.234-.484.234-.617s-.257-.805-.586-1.508c-.328-.703-.57-1.32-.554-1.375.023-.062.18-.102.383-.102.304 0 .492-.093 1.585-.804l1.243-.813.351.196c.196.109.555.343.805.515zM9.055 34.305l.453.984-.313.516-.304.523H7.273l-.304-.523-.305-.524.305-.664c.172-.367.383-.82.46-1.008l.15-.336.507.024.508.023.46.985zm23.515-.696c.086.188.29.641.461 1.008l.305.664-.313.524-.304.523h-1.61l-.304-.523-.313-.524.305-.664c.172-.367.375-.82.46-1.008l.141-.328h1.032l.14.328zm-11.617 2.368l.461 1.015-.297.524-.297.523-.82.008h-.82l-.297-.524-.297-.523.156-.352c.086-.195.297-.671.469-1.046l.32-.688.477.023.476.024.47 1.016z" fill="#000875"/></svg>