<svg width="40" height="40" fill="none" xmlns="http://www.w3.org/2000/svg"><g clip-path="url(#clip0_59_593)" fill="#000875"><path d="M14.976.086c-.289.172-.367.484-.367 1.555v1.015h-1.062c-.579 0-1.125.04-1.211.078-.375.204-.383.29-.383 4.211v3.68L7.5 12.852c-4.211 2.109-4.461 2.25-4.664 2.554l-.22.328v3.282c0 3.375.063 4.187.384 5.398l.101.39-.492.524c-.547.578-1.039 1.5-1.258 2.328-.086.328-.133.813-.133 1.367 0 1.016.133 1.61.57 2.5.68 1.383 1.876 2.375 3.446 2.86.797.25 2.29.258 3.024.015l.492-.164v1.594c0 1.734.047 2 .414 2.242.117.078.36.133.562.133.39 0 .305.063 1.867-1.351l.844-.774.29.266c.898.843 1.866 1.695 2.015 1.773.32.164.781.11 1.055-.14l.257-.227.024-2.508.023-2.508h4.61l.187-.195a.574.574 0 000-.86c-.187-.195-.187-.195-1.851-.195H17.39l.867-.882c.899-.899 1.493-1.602 1.875-2.211l.22-.344h5.257c5.148 0 5.25 0 5.406-.156.258-.258.235-.664-.047-.922l-.195-.172H25.93c-3.843 0-4.843-.024-4.82-.102.016-.047.133-.367.258-.695l.234-.61h1.078c1.04 0 1.086-.007 1.266-.195a.574.574 0 000-.86c-.18-.187-.234-.194-1.094-.194-.492 0-.898-.024-.898-.063 0-.031.055-.336.117-.68.063-.343.11-.632.117-.648 0-.008 1.93-.016 4.29-.016 4.218 0 4.288 0 4.491-.164.258-.203.29-.687.047-.93-.156-.156-.258-.156-4.453-.156h-4.297V20h4.282c4.843 0 4.625.031 4.625-.578 0-.242-.047-.375-.165-.485-.156-.14-.359-.148-4.453-.171l-4.289-.024v-1.398h1.602c1.601 0 1.61 0 1.797-.196a.606.606 0 00.047-.828c-.149-.187-.172-.187-1.79-.21l-1.64-.024-.047-.266c-.07-.36-.375-.703-.82-.937l-.36-.188 4.852-.008c4.789 0 4.86 0 5.062-.164.258-.203.29-.687.047-.93-.156-.155-.258-.155-6.328-.155h-6.172l-2.656-1.329-2.656-1.328V3.828h21.719v4.617l.195.188c.226.234.578.25.828.047l.188-.149.023-2.492c.016-1.367 0-2.594-.023-2.726a.936.936 0 00-.25-.454l-.204-.203H15.86V1.172h21.719v27.656h-1.406l-.016-9.11-.023-9.109-.188-.148c-.234-.195-.563-.188-.82.016l-.203.156v20.851H22.96l-.188.196a.574.574 0 000 .86l.188.194h6.257c6.868 0 6.586.016 6.836-.468.086-.164.118-.485.118-1.211v-.977h.976c.727 0 1.047-.031 1.211-.117.5-.258.469.844.469-14.914 0-8.742-.031-14.406-.07-14.524a1.24 1.24 0 00-.25-.359L38.328 0H26.726c-7.742.008-11.656.031-11.75.086zM21 19.359c-.032 2.993-.047 3.328-.211 4.102-.367 1.812-1.047 3.344-2.078 4.727-.57.765-1.696 1.953-2.305 2.437l-.313.25V26.438l.61-.618c1.32-1.351 1.898-2.992 1.726-4.867-.078-.75-.18-1.164-.476-1.82-.313-.695-.68-.875-1.11-.531-.257.203-.265.53-.023 1.093.281.633.375 1.11.375 1.867 0 1.336-.445 2.399-1.414 3.36-.977.984-2 1.406-3.383 1.406h-.734l-.281-.422c-.657-.992-1.782-1.843-2.86-2.164-.422-.125-.586-.367-.758-1.156-.172-.781-.117-1.805.149-2.523 1.023-2.82 4.101-4.063 6.726-2.72.711.36.922.384 1.18.118.258-.25.258-.61 0-.867-.242-.242-1.18-.688-1.813-.86-.726-.195-1.984-.234-2.757-.078a6.01 6.01 0 00-4.72 7.125c.063.328.11.602.095.617-.016.008-.344.07-.727.133-.39.07-.922.211-1.187.313-.57.234-.516.289-.703-.742-.086-.47-.125-1.485-.157-3.82l-.039-3.18 4.32-2.141 4.329-2.14 4.28 2.14 4.29 2.14L21 19.36zM8.054 24.914c1.29.398 2.414 1.547 2.829 2.86.945 3.054-1.836 6.132-4.946 5.476-.898-.188-1.508-.531-2.195-1.21-.672-.68-1.024-1.298-1.203-2.157-.14-.688-.14-1.031 0-1.719.18-.86.531-1.477 1.203-2.156 1.195-1.195 2.726-1.578 4.312-1.094zm6.774 9.242l-.024 2.36-.96-.875c-1.383-1.25-1.438-1.25-2.922.101L10 36.57v-1.508l.008-1.507.304-.235c.75-.57 1.477-1.68 1.805-2.773.187-.625.242-1.758.125-2.547l-.055-.398.758-.04c.516-.03.945-.101 1.313-.226l.546-.188.024 2.329c.008 1.273.008 3.382 0 4.68z"/><path d="M13.304 21.11l-1.117 1.109-.687-.672c-.774-.766-.946-.875-1.274-.805-.28.063-.46.305-.46.625 0 .203.163.399 1.078 1.313.96.96 1.101 1.07 1.335 1.07.243 0 .399-.125 1.594-1.313.727-.718 1.367-1.406 1.438-1.53a.627.627 0 00-.555-.907c-.195 0-.414.18-1.352 1.11zM6.242 26.242c-.102.078-.305.39-.453.695l-.266.555-.555.086c-1.062.172-1.281.375-1.234 1.156.008.11.219.391.492.688l.484.5-.093.586c-.117.719-.07.992.242 1.25.344.289.742.265 1.39-.086l.524-.29.508.29c.687.383 1.07.383 1.437.015.297-.296.32-.46.18-1.28l-.086-.5.43-.438c.53-.54.633-.774.523-1.196-.101-.375-.398-.578-.93-.648-.789-.11-.773-.102-1.062-.672-.148-.289-.36-.601-.477-.695-.265-.211-.796-.219-1.054-.016zm1.14 2.39c.141.063.375.118.516.118h.258l-.242.25c-.329.344-.43.64-.368 1.055l.055.351-.32-.164c-.406-.203-.64-.203-1.04 0l-.32.156.055-.382c.063-.446-.008-.625-.375-1.016l-.242-.25h.258c.414 0 .75-.211.953-.586l.18-.344.195.344c.11.211.289.39.437.469zM19.703 7a.794.794 0 00-.25.313c-.086.226.039.632.234.734.094.047 1.774.078 4.399.078h4.25l.164-.18c.25-.265.234-.695-.032-.906-.203-.164-.28-.164-4.398-.164-3.719 0-4.21.016-4.367.125zM17.039 10.984c-.22.274-.204.524.023.79l.188.218H30.85l.172-.164c.227-.234.227-.719-.008-.906-.164-.133-.555-.14-6.992-.14h-6.828l-.156.202zM26.992 16.29a.609.609 0 00-.195.429c0 .148.07.312.195.43l.187.195h1.844c1.735 0 1.844-.008 1.992-.157.258-.257.235-.664-.047-.921-.195-.164-.242-.172-1.992-.172H27.18l-.187.195zM25.195 24.336a.61.61 0 00-.195.43c0 .148.07.312.195.43l.188.195h2.687c2.602 0 2.695-.008 2.898-.164.266-.211.29-.688.032-.93-.164-.149-.258-.156-2.89-.156h-2.727l-.188.195zM20.336 33.68c-.29.086-.47.312-.782 1.015l-.234.516-.727.094c-.921.133-1.171.32-1.234.93l-.04.406.571.586.57.586-.085.5c-.18.937-.078 1.406.336 1.593.359.164.718.11 1.351-.21l.61-.305.578.304c.828.43 1.375.399 1.664-.086.156-.257.164-.523.039-1.257l-.086-.547.539-.547c.539-.54.539-.547.539-.977 0-.39-.023-.46-.25-.656-.203-.18-.36-.234-.961-.313l-.71-.101-.345-.672c-.187-.367-.406-.71-.484-.758-.227-.14-.586-.18-.86-.101zm.976 2.601c.125.063.406.14.633.172l.406.055-.304.32c-.438.445-.508.625-.446 1.055.024.195.07.422.086.5.04.125 0 .117-.351-.055-.516-.266-.93-.266-1.391.008-.32.187-.352.187-.313.055.204-.72.125-1.078-.343-1.563l-.313-.32.39-.047c.595-.07.845-.234 1.087-.727l.203-.43.219.43c.132.266.304.477.437.547zM27.5 33.727c-.211.109-.352.289-.617.812l-.352.68-.703.093c-.633.086-.735.126-.961.352-.219.219-.258.313-.258.625 0 .352.024.398.547.938l.547.562-.11.688c-.125.796-.07 1.125.243 1.367.32.25.78.21 1.492-.149l.61-.304.546.304c.734.414 1.18.422 1.563.04.296-.297.312-.407.171-1.313l-.085-.61.515-.53c.57-.594.664-.821.531-1.259-.14-.492-.414-.632-1.437-.757l-.453-.047-.297-.602c-.172-.328-.39-.672-.484-.765a.898.898 0 00-1.008-.125zm.976 2.5c.133.117.352.187.672.226l.477.055-.36.36c-.406.413-.484.663-.375 1.233l.07.407-.374-.196c-.485-.242-.946-.242-1.367 0l-.329.188.04-.61.046-.609-.367-.39-.36-.383.4-.055c.609-.078.812-.219 1.054-.719l.219-.437.18.375c.1.21.265.46.374.555zM34.765 33.727c-.21.109-.351.289-.617.812l-.351.68-.664.086c-1.032.148-1.258.336-1.258 1.078 0 .336.023.383.547.875l.547.523-.126.688c-.093.531-.093.742-.03.953.218.664.859.758 1.78.273l.579-.304.554.304c.727.39 1.203.422 1.54.078.312-.304.343-.523.218-1.289l-.117-.664.5-.492c.578-.57.703-.89.555-1.36-.133-.398-.438-.562-1.243-.671l-.656-.094-.312-.625c-.438-.883-.875-1.14-1.446-.851zm.586 1.984c.22.477.508.68 1.063.742l.469.055-.282.226c-.43.36-.539.625-.476 1.211.031.274.031.492.008.492-.024 0-.18-.07-.352-.156a1.673 1.673 0 00-.625-.156c-.172 0-.453.07-.625.156a2.409 2.409 0 01-.352.157c-.023 0-.015-.188.008-.422.07-.57.008-.774-.367-1.172l-.305-.344.43-.055c.508-.062.805-.273 1.016-.734.078-.18.164-.32.195-.32s.117.14.195.32z"/></g><defs><clipPath id="clip0_59_593"><path fill="#fff" d="M0 0h40v40H0z"/></clipPath></defs></svg>