<svg width="40" height="40" fill="none" xmlns="http://www.w3.org/2000/svg"><path d="M29.648 1.203c-2.18.344-4.125 1.485-5.523 3.235-.86 1.078-1.39 2.164-1.758 3.585-.187.743-.21.993-.219 2.055 0 1.258.086 1.79.446 2.836.18.524.593 1.39.89 1.867.102.164.188.313.188.336 0 .016-2.82.047-6.266.055-5.914.023-6.289.031-6.484.164-.508.351-.485.156-.531 4.586l-.04 4.023-.609 1.196c-.508.976-.672 1.242-.93 1.43-.18.124-.343.226-.374.226-.032 0-.102-.156-.149-.344a1.49 1.49 0 00-.828-.992c-.266-.125-.524-.148-1.758-.148-1.242 0-1.492.023-1.766.148-.398.18-.695.555-.812 1.047l-.094.367h-.875c-.96 0-1.32.11-1.703.516-.328.351-.453.742-.453 1.383 0 .71.164.992.586.992.406 0 .586-.282.586-.907 0-.742.101-.812 1.094-.812h.78v8.125h-.804c-.687 0-.828-.023-.937-.14-.117-.126-.133-.415-.133-2.391 0-1.29-.031-2.305-.078-2.383-.117-.227-.5-.352-.719-.235-.367.196-.367.211-.375 2.688 0 2.313 0 2.352.188 2.75.132.281.296.469.523.625.312.203.39.219 1.336.242.695.024 1 .055 1 .117 0 .516.508 1.227 1 1.399.32.11 2.867.148 3.234.047.258-.078.664-.414.844-.703l.133-.227 12.648.008c11.922 0 12.664-.008 12.922-.133a1.38 1.38 0 00.445-.406l.18-.266V18.312l.422-.18c1.063-.437 2.516-1.593 3.29-2.624 3.358-4.469 1.92-10.938-2.985-13.399-.344-.171-.735-.312-.867-.312-.415 0-.672.414-.516.82.031.07.266.235.531.367 3.203 1.602 4.899 4.766 4.414 8.243-.422 3.03-2.789 5.585-5.898 6.367-.985.25-2.828.242-3.742 0-2.141-.586-3.97-2.094-4.977-4.117a7.572 7.572 0 01-.773-4.22c.21-1.859 1.007-3.5 2.335-4.788 1.54-1.492 3.547-2.242 5.836-2.188.899.024 1.016-.023 1.102-.453.063-.328-.156-.578-.594-.664-.492-.094-1.648-.07-2.383.04zm-12.93 17.813c0 1.43.024 2.71.048 2.851.062.281.359.61.601.649.336.054.625-.094 1.617-.875.555-.43 1.063-.805 1.125-.828.078-.032.446.21 1 .648.485.383 1 .773 1.141.875.469.328 1.086.172 1.258-.32.055-.157.086-1.211.086-2.922v-2.688H24.78l.446.375c.89.766 1.976 1.399 3 1.727l.523.18v2.335c0 2.235.008 2.344.156 2.493.211.21.633.203.828-.008.141-.149.149-.328.172-2.375l.024-2.211.758.039c.671.039 1.328-.016 2.304-.18l.29-.054v18.069h-3.36v-5.733c0-5.68 0-5.735-.164-5.938a.584.584 0 00-.852-.047c-.156.156-.156.258-.156 5.938v5.78h-9.18V35.47h1.22c1.32 0 1.562-.055 2.015-.438.367-.304.578-.773.586-1.281a2.295 2.295 0 00-.055-.602c-.055-.148-.016-.195.25-.328.562-.289.883-.851.883-1.578 0-.508-.18-.922-.578-1.297-.352-.343-.75-.492-1.29-.492h-.46l.007-.61c0-.663-.093-.898-.5-1.312-.546-.554-.406-.539-4.71-.562l-3.875-.024.359-.718c.36-.696.367-.735.367-1.422 0-.633-.023-.742-.234-1.125-.383-.688-1.047-1.157-1.657-1.172l-.257-.008v-6.094h5.078v2.61zm5.704-.344c0 1.242-.016 2.265-.04 2.265-.023 0-.366-.257-.773-.578-1.148-.922-1.39-1.03-1.789-.812-.093.047-.547.383-1.008.742-.453.352-.851.648-.875.648-.023 0-.046-1.023-.046-2.265v-2.266H22.422v2.266zm-10.25 5.125c.25.172.484.68.484 1.031 0 .203-.125.563-.39 1.102-.446.914-.5 1.289-.22 1.695.329.477.134.461 4.54.5l4.055.04.187.218c.235.281.235.531 0 .812l-.187.22-2.594.038c-2.453.04-2.594.047-2.703.188-.164.226-.14.625.054.797.157.14.368.148 3.86.187 3.492.04 3.703.047 3.86.188.109.101.163.242.163.43-.008.648.07.632-4.101.632h-3.64l-.188.195c-.11.102-.196.282-.196.391 0 .11.086.289.196.39l.187.196h6.273l.227.227c.125.124.227.288.227.359 0 .226-.235.586-.414.625-.094.023-1.696.047-3.555.062l-3.39.016-.15.188c-.171.218-.194.538-.038.757.101.133.242.149 1.726.188l1.617.039.188.219c.234.28.234.53 0 .812l-.188.219h-4.64c-2.547 0-4.727-.024-4.852-.063l-.21-.054v-8.578l.296-.094c1-.328 1.375-.766 2.446-2.914.57-1.14.718-1.375.851-1.383.024 0 .125.055.219.125zm-5.11 2.812c.11.11.125.72.125 5.532 0 4.101-.023 5.43-.093 5.5-.063.062-.492.093-1.407.093-1.21 0-1.312-.007-1.39-.148-.047-.102-.078-1.969-.078-5.508 0-4.758.015-5.36.125-5.469.18-.187 2.539-.187 2.718 0z" fill="#000875"/><path d="M29.948 5.026a.628.628 0 011.256 0v5.655a.628.628 0 11-1.256 0V5.026z" fill="#000875"/><path d="M35.183 10.052a.628.628 0 010 1.257h-4.607a.628.628 0 110-1.257h4.607z" fill="#000875"/></svg>