<svg width="40" height="40" fill="none" xmlns="http://www.w3.org/2000/svg"><g clip-path="url(#clip0_59_554)" fill="#000875"><path d="M21.719.086c-2.914.328-5.664 1.633-7.711 3.656l-.555.555H.383l-.188.195C0 4.68 0 4.695 0 6.172c0 1.476 0 1.492.195 1.68.102.109.282.195.39.195.11 0 .29-.086.392-.195.187-.18.195-.227.195-1.29V5.47h11.344l-.141.21c-.297.454-.742 1.212-.867 1.47l-.133.273H7.648c-3.648 0-3.726 0-3.93.164a.584.584 0 00-.046.851c.148.149.258.157 3.68.157 3.312 0 3.515.008 3.476.133-.023.078-.11.39-.203.703l-.172.562-3.305.024c-3.125.023-3.312.03-3.468.171-.227.204-.227.672 0 .876.156.14.343.148 3.36.171l3.194.024-.046.601c-.024.329-.055.649-.079.696-.023.078-.718.101-3.156.101-3.023 0-3.133.008-3.281.156a.584.584 0 00.047.852c.203.156.289.164 3.312.164h3.11l.054.485a13.661 13.661 0 001.008 3.867c.11.265.203.508.203.53 0 .024-.242.04-.539.04-.46 0-.578.031-.765.188l-.22.187-.023 8.586c-.015 4.719 0 8.727.024 8.914.094.656.008.64 2.898.64 1.563 0 2.602-.03 2.688-.078.086-.046.187-.21.234-.374.047-.188.078-2.5.078-6.672v-6.383l.633.383c.352.21.703.406.781.43.14.046.149.234.149 6 0 3.874.031 6.054.078 6.241.047.165.148.329.234.376.196.109 5.117.109 5.313 0 .086-.047.187-.211.234-.376.047-.187.078-2.148.078-5.53v-5.243l.36-.055c.203-.023.5-.047.664-.047h.304v9.227l.196.188c.242.25.539.25.78 0l.196-.188V25.72l.414-.094a12.965 12.965 0 004.032-1.742l.765-.508 3.078 3.078c2.055 2.063 3.188 3.133 3.407 3.242 1.148.555 2.53-.312 2.523-1.586-.008-.695-.14-.859-3.414-4.14l-3.094-3.102.438-.656c.539-.797 1.297-2.36 1.57-3.234.46-1.477.547-2.118.555-3.93 0-1.844-.078-2.43-.516-3.86-.39-1.28-1.32-3.171-1.695-3.468-.172-.133-.492-.117-.703.031-.282.195-.227.563.18 1.273a11.93 11.93 0 011 9.72c-1.891 5.702-7.727 9.038-13.657 7.827-3.992-.82-7.414-3.851-8.742-7.773-.695-2.055-.79-4.695-.25-6.781 1.031-3.946 4.187-7.22 8.055-8.336 3.945-1.14 8.078-.258 11.101 2.375.985.86 1.11.906 1.469.625a.476.476 0 00.203-.422c0-.219-.086-.336-.555-.774C29.265.945 25.406-.328 21.72.086zm-9.172 20.477c.25.359.797 1 1.219 1.437l.765.79V36.093H11.094V19.922h1l.453.64zm23.258 4.265c2.625 2.633 3.023 3.063 3.023 3.266-.008.422-.398.703-.781.562-.11-.039-1.54-1.414-3.18-3.054l-2.992-2.985.406-.406c.227-.227.43-.414.453-.414.024 0 1.407 1.367 3.07 3.031zm-16.274.664c.664.195 1.969.445 2.32.445h.18v10.157H18.593v-5.438c0-5.14.009-5.437.141-5.398.07.015.43.125.797.234z"/><path d="M21.64 2.46c-3.734.509-6.937 3-8.359 6.477-.562 1.383-.781 2.516-.781 4.07 0 2.227.555 4.102 1.758 5.9 1.633 2.429 4.015 4 6.953 4.577 1.039.203 2.945.188 4-.039 2.102-.437 3.867-1.375 5.36-2.843a10.535 10.535 0 003.179-7.594c0-1.547-.32-3.078-.922-4.375-2-4.352-6.469-6.82-11.187-6.172zm3.477 1.282c3.305.735 5.899 3.04 6.977 6.219.71 2.086.633 4.633-.219 6.68-1.57 3.797-5.57 6.203-9.625 5.797-3.367-.344-6.156-2.266-7.664-5.29-1.227-2.468-1.227-5.828 0-8.28 1.203-2.391 3.187-4.102 5.726-4.923 1.368-.445 3.344-.531 4.805-.203zM.164 9.656L0 9.867v29.75l.195.188.188.195h25.015l.188-.195c.187-.18.195-.227.195-1.29 0-1.359-.078-1.562-.601-1.562a.476.476 0 00-.407.203c-.14.18-.164.32-.164.938v.734H1.171V9.867l-.163-.21a.476.476 0 00-.422-.204.476.476 0 00-.422.203z"/><path d="M3.719 15.398a.584.584 0 00-.047.852c.148.148.258.156 2.578.156s2.43-.008 2.578-.156c.258-.258.234-.586-.047-.844-.195-.172-.219-.172-2.523-.172-2.242 0-2.336.008-2.54.164zM2.758 23.625l-.22.188-.023 6.242c-.015 3.43 0 6.383.024 6.57.094.664.008.64 2.93.64 2.921 0 2.836.024 2.93-.64.023-.188.038-3.14.023-6.57l-.024-6.242-.218-.188-.22-.188H2.977l-.218.188zm4.43 6.727v5.742H3.75V24.609H7.187v5.743zM23.68 7.878c1.378 0 2.462.33 3.253.988.79.66 1.186 1.567 1.186 2.722 0 1.156-.395 2.063-1.186 2.722-.79.66-1.875.989-3.254.989h-2.63v3.223h-1.521V7.878h4.151zm-.046 6.098c.963 0 1.698-.203 2.204-.609.507-.415.76-1.008.76-1.779 0-.77-.253-1.358-.76-1.764-.506-.415-1.241-.623-2.204-.623h-2.585v4.775h2.585z"/><path d="M17.931 15.96h6.897v1.183H17.93V15.96z"/></g><defs><clipPath id="clip0_59_554"><path fill="#fff" d="M0 0h40v40H0z"/></clipPath></defs></svg>