<svg width="40" height="40" fill="none" xmlns="http://www.w3.org/2000/svg"><path d="M18.11.078C16 .414 14.78 1.234 13.851 2.93c-.282.507-.32.547-.805.742-.828.328-1.235.719-1.469 1.398-.117.344-.117 1.72-.008 3.82l.094 1.665-.203.21c-.11.118-.297.422-.422.68-.187.399-.219.563-.219 1.133.008.547.04.742.211 1.11a2.9 2.9 0 002.313 1.671c.445.047.492.07.531.258.14.633.227.89.492 1.453.367.774.89 1.477 1.5 2.008l.461.399v.718c0 .508-.031.735-.094.766-4.023 1.555-8.086 3.164-8.375 3.32-.875.477-2 1.766-2.39 2.75-.438 1.086-.422.828-.453 6.367-.016 3.625 0 5.243.062 5.454.11.382.508.828.899 1 .289.132.585.148 3.523.148h3.21l.165-.18c.227-.242.227-.601-.008-.82-.164-.156-.265-.172-1.094-.172h-.914v-5.195c0-5.094 0-5.196-.156-5.352a.584.584 0 00-.851.047c-.165.203-.165.266-.165 5.352v5.148H8.062c-1.484 0-1.64-.016-1.757-.14-.118-.133-.133-.586-.133-4.985 0-5.406.008-5.492.523-6.516.367-.734 1.188-1.585 1.86-1.93.257-.132 1.53-.648 2.836-1.155 2.125-.829 2.375-.907 2.5-.805 1.257 1.086 3.03 2.492 3.187 2.531.11.031.344.031.531.016.32-.04.344-.032.524.281l.195.32-.648 6.172c-.352 3.39-.64 6.18-.649 6.188 0 .015-.445.023-.984.023-.54 0-1.047.031-1.125.078-.336.18-.313.907.039 1.047.07.024 4.32.047 9.437.047 8.899 0 9.329-.008 9.625-.148.172-.079.407-.243.524-.368.43-.46.453-.625.453-2.882v-2.079l-.195-.187c-.242-.25-.54-.25-.782 0l-.195.187v2.024c0 1.86-.008 2.031-.14 2.148-.126.117-.368.133-1.758.133h-1.617V33.68c0-5.086 0-5.149-.165-5.352a.584.584 0 00-.851-.047c-.156.157-.156.258-.156 5.352v5.195h-6.157l-.047-.297c-.054-.343-1.21-11.492-1.234-11.89a.962.962 0 01.172-.555c.172-.266.203-.281.516-.242.187.015.422.015.53-.016.11-.023.743-.492 1.392-1.039.656-.539 1.359-1.125 1.562-1.289l.367-.305 2.43.938c1.328.523 2.61 1.039 2.836 1.148.61.313 1.437 1.196 1.797 1.914.437.899.523 1.407.523 3.336 0 1.664 0 1.664.195 1.852.243.25.54.25.79 0l.203-.203-.032-1.93c-.039-2.195-.086-2.43-.656-3.602-.281-.57-.5-.875-.969-1.367-.336-.351-.812-.75-1.054-.898-.242-.149-2.274-.977-4.516-1.844l-4.078-1.578-.023-.727-.024-.734.602-.586c.922-.906 1.453-1.797 1.75-2.937l.14-.547.492-.063a2.934 2.934 0 002.32-1.68c.173-.367.204-.562.212-1.109 0-.57-.032-.734-.22-1.133-.124-.258-.312-.562-.42-.68l-.204-.21.094-1.82c.054-1 .148-2.07.21-2.368.063-.304.15-.726.196-.937.11-.532.11-2.078-.008-2.696-.148-.812-.523-1.906-.719-2.086-.242-.226-.601-.351-.843-.296-.11.03-.391.14-.625.257-.399.196-.508.211-1.368.211C24.484.812 24.18.773 23.36.57 22.82.43 22.047.266 21.641.195c-.891-.148-2.914-.218-3.532-.117zm3.413 1.281a51.8 51.8 0 011.875.407c1.086.265 1.243.28 2.11.25.71-.032 1.039-.079 1.36-.204.234-.093.445-.156.46-.132.016.015.102.273.188.562.109.367.172.867.195 1.625.031.946.016 1.188-.133 1.797-.11.477-.203 1.25-.273 2.414-.063.938-.117 1.711-.133 1.727-.016.008-.227 0-.469-.016l-.453-.039v-.445c0-.922-.422-1.696-1.125-2.055-.406-.219-1.14-.234-2.117-.047-1.774.344-4.266.344-6.024 0-.968-.187-1.703-.172-2.109.047-.703.36-1.125 1.133-1.125 2.055v.445l-.445.04c-.25.015-.461.023-.477.015-.047-.047-.164-2.422-.172-3.414 0-.993 0-.993.227-1.258.156-.172.375-.305.672-.399.586-.18.992-.562 1.367-1.289.64-1.226 1.64-1.922 3.14-2.195.594-.102 2.633-.04 3.461.11zM16.93 8.391c1.187.218 2.96.304 4.289.21.672-.054 1.5-.14 1.851-.203 1.188-.218 1.266-.218 1.532-.078.484.242.492.328.453 3.82-.032 3.47-.032 3.485-.57 4.57-.383.782-1.329 1.735-2.102 2.134-.875.453-1.36.562-2.383.562-1.047-.008-1.797-.21-2.648-.71-1.133-.68-2.079-2.048-2.313-3.344-.14-.805-.164-6.204-.031-6.594.055-.14.203-.328.336-.414.265-.164.43-.156 1.586.047zm-3.18 4.187v1.64h-.21c-.126 0-.4-.085-.618-.187-1-.469-1.274-1.703-.555-2.523.29-.328.766-.563 1.133-.57h.25v1.64zm13.32-1.492c.563.25.977.883.977 1.484 0 .828-.813 1.649-1.633 1.649-.164 0-.164-.016-.164-1.64v-1.642h.258c.133 0 .39.07.562.149zm-8.062 9.43c1.055.187 2.055.086 3.351-.328.11-.04.133.03.157.468l.023.516-.953.781-.953.781H19.36l-.954-.789c-.515-.437-.945-.828-.937-.86.008-.038.015-.28.023-.53l.008-.461.39.148a8.67 8.67 0 001.118.274zm-1.617 2.109c.398.32.765.64.812.695.07.078-.008.25-.328.735-.227.343-.438.617-.46.61-.032-.009-.587-.454-1.235-.993L15 22.703l.805-.328c.437-.18.812-.336.828-.336.015-.008.351.258.758.586zm7.53.102c0 .046-2.233 1.906-2.327 1.937-.032.008-.242-.266-.469-.617-.484-.727-.547-.57.523-1.453l.649-.54.812.313c.446.172.813.336.813.36zm-3.983 1.64c.171.258.312.485.312.516 0 .023-.117.219-.25.43l-.258.39h-1.484l-.25-.39c-.14-.211-.258-.407-.258-.43 0-.031.14-.258.313-.516l.32-.46h1.234l.32.46zm-.36 2.953c.031.25.07.61.094.805l.047.352-.633-.625c-.422-.415-.633-.68-.633-.797 0-.172.031-.18.54-.18h.538l.047.445zm.39 3.696c.032.367.071.789.102.937.04.258 0 .235-.953-.703l-.984-.977.055-.703c.023-.39.07-.734.093-.773.024-.04.399.297.836.742l.797.813.055.664zm-.812 1.914l1.133 1.133.086.843c.047.461.078.844.07.852 0 .008-.593-.57-1.32-1.297l-1.305-1.313.055-.671c.031-.375.078-.68.102-.68.023 0 .554.508 1.18 1.133zm1.516 4.922c.023.125.055.398.078.601l.047.375h-.336c-.32 0-.36-.023-1.648-1.32L18.5 36.195l.055-.617c.086-1.031-.032-1.078 1.61.563 1.132 1.132 1.483 1.53 1.507 1.71zm-2.727.43l.54.546H18.21l.047-.453c.039-.445.078-.64.117-.64.016 0 .273.242.57.546z" fill="#000875"/></svg>