<svg width="40" height="40" fill="none" xmlns="http://www.w3.org/2000/svg"><g clip-path="url(#clip0_59_612)" fill="#000875"><path d="M7.922.188A2.44 2.44 0 006.75 1.359c-.164.352-.187.516-.195 1.414V3.79l-.852.414C2.406 5.797.18 9.156.023 12.773l-.046 1.016.218.211a.974.974 0 00.532.258c.18.023 2.476.039 5.093.023 3.922-.015 4.797-.039 4.93-.133.39-.257.383-.117.406-5.203.016-2.625 0-4.914-.023-5.093a.975.975 0 00-.258-.532l-.21-.21-.977.046c-.54.024-1.118.07-1.282.094l-.304.055.039-.578c.023-.32.086-.649.14-.743.25-.406-.398-.382 11.743-.406l11.304-.016v2.672c0 2.657 0 2.68.188 3.079a2.44 2.44 0 001.172 1.171c.398.188.422.188 3.078.188h2.672l-.016 14.586c-.023 15.851.008 14.797-.445 15.039-.281.148-29.11.148-29.39 0-.43-.227-.423-.164-.462-4.102l-.039-3.664-.219-.187a.787.787 0 00-1.078.039l-.226.226v7.633l.187.399a2.44 2.44 0 001.172 1.172L8.32 40h29.922l.399-.188a2.44 2.44 0 001.172-1.171l.187-.399V7.461l-3.734-3.727L32.539 0H8.32l-.398.188zM35.61 7.093c-1.875.031-2.172-.008-2.43-.266-.266-.266-.29-.445-.29-2.367V2.773l2.15 2.149 2.148 2.148-1.578.024zM9.53 8.71v3.945H1.633l.047-.375c.39-2.875 2.39-5.554 5.047-6.758.765-.343 1.984-.687 2.672-.75.125-.007.132.227.132 3.938z"/><path d="M12.914 5.914c-.242.047-.546.375-.601.656-.024.14-.047 2.172-.047 4.532v4.28l-4.469.024c-4.836.024-4.695.016-4.922.446-.203.382-.054 2 .297 3.242 1.04 3.656 4.078 6.484 7.844 7.289.938.203 3.281.203 4.219 0a10.409 10.409 0 008.023-8.024c.203-.937.203-3.28 0-4.218-.805-3.766-3.625-6.805-7.289-7.844-.96-.274-2.57-.477-3.055-.383zM15.29 7.82c1.016.258 2.438.946 3.11 1.508l.234.195-2.36 2.368-2.366 2.367V7.563l.414.054c.218.031.656.125.968.203zm5.016 3.547a9.124 9.124 0 011.227 2.649c.273.976.343 2.734.148 3.757-.68 3.61-3.422 6.352-7.031 7.032-.961.18-2.703.133-3.602-.102-2.906-.765-5.14-2.805-6.148-5.617-.18-.492-.446-1.656-.446-1.945 0-.094.711-.11 4.508-.11h4.508l3.164-3.156c1.742-1.742 3.188-3.148 3.219-3.133.023.024.234.297.453.625zM25.617 11.086c-.18.18-.226.297-.226.555 0 .257.047.375.227.554l.226.227h10.258l.187-.188c.352-.351.352-.836 0-1.187l-.187-.188H25.844l-.227.227zM25.617 14.836c-.18.18-.226.297-.226.555 0 .257.047.375.227.554l.226.227h10.258l.187-.188c.352-.351.352-.836 0-1.187l-.187-.188H25.844l-.227.227zM25.617 18.586c-.18.18-.226.297-.226.555 0 .257.047.375.227.554l.226.227h4.836l.203-.195a.807.807 0 000-1.172l-.203-.196h-4.836l-.227.227zM33.383 18.5c-.406.313-.39 1.031.016 1.297.297.195.789.164 1.015-.063.532-.53.211-1.375-.523-1.375-.195 0-.406.063-.508.141zM33.649 24.688a2.333 2.333 0 00-1.774 2.28c0 .29.032.61.07.712.07.172-.101.36-2.171 2.43-2.235 2.234-2.242 2.242-2.477 2.156-.297-.117-1.172-.117-1.469 0-.234.086-.25.07-1.695-1.375l-1.469-1.47.047-.624c.055-.805-.14-1.36-.648-1.883-.492-.508-.946-.695-1.672-.695-1 0-1.805.515-2.195 1.398-.188.43-.235 1.313-.086 1.688.078.195.007.273-1.344 1.625-1.406 1.406-1.422 1.422-1.656 1.336-.415-.164-1.227-.11-1.688.101-.594.274-.883.547-1.164 1.11a2.381 2.381 0 001.047 3.18c.492.25 1.367.28 1.937.07.57-.22 1.11-.758 1.32-1.313.18-.477.204-1.242.063-1.64l-.093-.266 1.39-1.39 1.39-1.391.36.101c.469.149 1 .14 1.453-.015l.375-.133 1.445 1.445c1.375 1.375 1.446 1.453 1.352 1.625-.125.234-.133 1.117-.015 1.523.046.172.226.485.39.704.813 1.07 2.43 1.218 3.438.312.203-.18.453-.5.562-.71.227-.462.297-1.212.156-1.72l-.101-.359 2.187-2.188 2.188-2.187.453.133c1.148.336 2.39-.235 2.852-1.305.18-.422.218-1.234.085-1.687-.335-1.125-1.671-1.867-2.843-1.578zm.883 1.68c.468.241.546.835.148 1.163-.32.274-.648.266-.938-.023-.359-.367-.296-.899.149-1.133.273-.148.36-.148.64-.008zm-13.922 1.53a.69.69 0 01.093 1.282c-.328.172-.515.148-.796-.11-.204-.18-.25-.28-.243-.508a.75.75 0 01.453-.68c.211-.085.22-.085.493.016zm-5.735 6.133a.703.703 0 01-.5 1.203.69.69 0 01-.703-.703c0-.633.75-.945 1.203-.5zm12.188.04c.273.32.265.648-.024.937-.562.562-1.453-.024-1.148-.75.133-.313.312-.422.687-.43.22 0 .329.055.485.242zM6.766 27.547c-.164.164-.203.281-.203.578 0 .516.265.781.781.781.297 0 .414-.039.578-.203.29-.297.29-.86 0-1.156-.164-.164-.281-.203-.578-.203-.297 0-.414.039-.578.203z"/></g><defs><clipPath id="clip0_59_612"><path fill="#fff" d="M0 0h40v40H0z"/></clipPath></defs></svg>