<svg width="1920" height="830" fill="none" xmlns="http://www.w3.org/2000/svg"><g filter="url(#filter0_d_59_92)"><path d="M828-1h1092.5v740.5H1339c-317.44-2.007-322.85-262.233-302.78-392.5C1063.03 173 975.208 26 828-1z" fill="#222CA8"/></g><g filter="url(#filter1_d_59_92)"><path d="M0 588.509V0h735c-291.218 0-107.498 168.021-96.454 398.691C649.211 621.46 253.192 673.289 0 588.509z" fill="#000875"/></g><g filter="url(#filter2_d_59_92)"><path d="M1 445.939V-1h479c-65.144 22.164-198.804 106.686-212.293 267.464C254.219 427.242 84.282 453.105 1 445.939z" fill="#031382"/></g><defs><filter id="filter0_d_59_92" x="688" y="-171" width="1352.5" height="1000.5" filterUnits="userSpaceOnUse" color-interpolation-filters="sRGB"><feFlood flood-opacity="0" result="BackgroundImageFix"/><feColorMatrix in="SourceAlpha" values="0 0 0 0 0 0 0 0 0 0 0 0 0 0 0 0 0 0 127 0" result="hardAlpha"/><feOffset dx="-10" dy="-40"/><feGaussianBlur stdDeviation="65"/><feComposite in2="hardAlpha" operator="out"/><feColorMatrix values="0 0 0 0 0 0 0 0 0 0.00896359 0 0 0 0 0.133333 0 0 0 0.3 0"/><feBlend in2="BackgroundImageFix" result="effect1_dropShadow_59_92"/><feBlend in="SourceGraphic" in2="effect1_dropShadow_59_92" result="shape"/></filter><filter id="filter1_d_59_92" x="-120" y="-120" width="995" height="887" filterUnits="userSpaceOnUse" color-interpolation-filters="sRGB"><feFlood flood-opacity="0" result="BackgroundImageFix"/><feColorMatrix in="SourceAlpha" values="0 0 0 0 0 0 0 0 0 0 0 0 0 0 0 0 0 0 127 0" result="hardAlpha"/><feOffset dx="10" dy="10"/><feGaussianBlur stdDeviation="65"/><feComposite in2="hardAlpha" operator="out"/><feColorMatrix values="0 0 0 0 0 0 0 0 0 0.00896359 0 0 0 0 0.133333 0 0 0 0.3 0"/><feBlend in2="BackgroundImageFix" result="effect1_dropShadow_59_92"/><feBlend in="SourceGraphic" in2="effect1_dropShadow_59_92" result="shape"/></filter><filter id="filter2_d_59_92" x="-119" y="-121" width="739" height="708" filterUnits="userSpaceOnUse" color-interpolation-filters="sRGB"><feFlood flood-opacity="0" result="BackgroundImageFix"/><feColorMatrix in="SourceAlpha" values="0 0 0 0 0 0 0 0 0 0 0 0 0 0 0 0 0 0 127 0" result="hardAlpha"/><feOffset dx="10" dy="10"/><feGaussianBlur stdDeviation="65"/><feComposite in2="hardAlpha" operator="out"/><feColorMatrix values="0 0 0 0 0 0 0 0 0 0.00896359 0 0 0 0 0.133333 0 0 0 0.3 0"/><feBlend in2="BackgroundImageFix" result="effect1_dropShadow_59_92"/><feBlend in="SourceGraphic" in2="effect1_dropShadow_59_92" result="shape"/></filter></defs></svg>