<svg width="225" height="47" fill="none" xmlns="http://www.w3.org/2000/svg"><path d="M27.645.18c-3.6.263-6.806 1.203-9.812 2.876-.477.263-.905.518-.954.567-.076.076.104.193.968.657.58.318 1.084.594 1.112.629.035.027.498-.16 1.037-.415 1.651-.788 3.22-1.328 4.844-1.66.373-.075.711-.138.753-.138.041 0-.36.443-.892.982-1.326 1.362-2.764 3.09-2.612 3.146.049.014.463.29.933.615l.85.595.18-.201c.097-.117.435-.532.76-.926.615-.747 2.246-2.42 2.75-2.814l.29-.235V7.48l.007 3.616.995.844 1.002.85.878-.07a25.842 25.842 0 004.74-.836c.415-.117.76-.2.781-.186.062.062.67 1.417.92 2.046 1.056 2.669 1.554 5.157 1.644 8.24.09 3.27-.38 6.354-1.465 9.576-.477 1.417-.532 1.555-.629 1.555-.041 0-.256-.062-.484-.138-.946-.332-3.496-.898-4.014-.898-.139 0-.477.297-1.5 1.292-.732.72-1.672 1.597-2.1 1.957l-.768.657-.007 3.055c0 1.819-.027 3.063-.062 3.063-.103 0-2.294-2.199-2.833-2.848l-.497-.602-.878.595c-.484.325-.905.622-.94.65-.09.076 1.092 1.451 2.177 2.537.684.677.878.912.753.885-2.045-.422-3.337-.81-4.768-1.424l-.815-.353-.92.512c-.51.283-1.05.573-1.195.65l-.27.138.65.352c2.287 1.23 4.976 2.081 7.87 2.482 1.252.173 4.382.173 5.667 0 7.02-.954 12.908-4.75 16.647-10.73 3.807-6.104 4.415-14.089 1.582-20.774C46.786 6.54 39.793 1.286 31.584.304 30.72.208 28.364.131 27.645.18zm5.432 2.655c2.715.553 5.652 1.846 7.856 3.443l.477.345-.408.27c-.988.67-3.517 2.005-3.683 1.942-.027-.013-.338-.449-.684-.967a28.158 28.158 0 00-3.724-4.501c-.387-.366-.657-.67-.608-.67.055 0 .4.062.774.138zM31.79 5.503c.588.609 1.313 1.397 1.603 1.756.63.781 1.638 2.213 1.645 2.323 0 .214-3.67.927-4.782.927h-.193V3.858l.331.276c.18.152.809.768 1.396 1.37zm13.192 4.625c2.543 3.153 4.208 7.266 4.47 11.076l.049.643h-8.299l-.049-.609c-.242-3.297-1.05-6.567-2.315-9.354-.193-.435-.373-.836-.386-.898-.028-.077.276-.256 1.23-.733 1.188-.595 2.397-1.307 3.144-1.846l.331-.242.574.567c.318.31.884.94 1.25 1.396zm4.477 14.67c-.096 1.397-.483 3.264-.995 4.778-.815 2.42-2.031 4.584-3.724 6.61-.401.476-.747.87-.767.87-.021 0-.256-.166-.532-.366a25.214 25.214 0 00-3.732-2.31 27.6 27.6 0 01-.78-.393c-.008-.007.151-.45.366-.982A27.817 27.817 0 0041.12 25.2c.034-.457.069-.885.069-.954 0-.111.242-.118 4.16-.118h4.153l-.042.67zm-17.876 9.458c.477.063 1.175.173 1.555.25.787.151 2.46.608 2.55.684.138.13-1.459 2.523-2.62 3.92-.649.78-2.397 2.571-2.784 2.84l-.221.16V34.153h.331c.18 0 .719.048 1.189.103zm7.532 2.365a23.964 23.964 0 012.619 1.624l.566.415-.504.415c-1.23 1.01-3.365 2.281-4.927 2.931-1.216.498-2.653.94-3.835 1.169-.325.062-.65.13-.726.152-.076.02.36-.47.968-1.093 1.686-1.728 3.089-3.56 4.215-5.503l.408-.705.242.104c.138.055.573.276.974.49z" fill="#fff"/><path d="M175.174 2.744c-.719.118-1.299.436-1.824.99-.919.96-1.113 2.329-.518 3.58.186.387.767 1.01 1.133 1.224.719.422 1.72.574 2.46.38a3.167 3.167 0 001.81-4.819c-.649-.974-1.928-1.548-3.061-1.355z" fill="#E3222A"/><path d="M6.885 4.348l-.663 1.148.263.083c.138.042.801.235 1.464.436 4.478 1.32 9.08 3.519 13.026 6.208 2.66 1.811 4.879 3.678 7.29 6.139 1.873 1.915 2.847 3.097 5.045 6.16.462.636.863 1.168.898 1.182.069.028 1.59-2.04 1.59-2.164 0-.076-1.32-1.908-2.026-2.814a48.455 48.455 0 00-8.167-8.192C20.464 8.49 14.134 5.157 8.315 3.429l-.773-.235-.657 1.154zM69.898 3.844a24.26 24.26 0 00-2.391.304c-2.861.581-4.768 2.06-5.321 4.128-.194.705-.207 2.17-.035 2.89.353 1.451 1.424 2.64 3.11 3.456.276.132 1.416.546 2.536.92 2.232.753 2.916 1.05 3.455 1.528.394.338.546.629.546 1.016 0 .94-.774 1.66-2.073 1.936-.415.09-.802.103-1.935.076-1.99-.049-3.4-.311-4.9-.92-.317-.124-.587-.228-.6-.214-.049.055-.16 4.024-.11 4.072.096.097 2.162.518 3.109.636 5.749.733 9.618-.228 11.38-2.814.664-.982.913-2.005.844-3.491-.042-.989-.152-1.487-.491-2.192-.442-.933-1.092-1.576-2.19-2.143-.809-.415-1.403-.636-3.366-1.251-2.48-.774-3.137-1.079-3.545-1.639-.159-.22-.2-.345-.2-.65 0-.497.124-.767.518-1.113.601-.532 1.555-.767 3.096-.774 1.582 0 2.902.194 4.284.643l.726.235.041-1.217c.028-.67.062-1.562.083-1.99l.042-.775-.263-.07c-.456-.117-1.817-.345-2.723-.449-.89-.103-3.02-.186-3.627-.138zM83.408 13.634c-1.914 5.22-3.524 9.596-3.572 9.72l-.09.221 2.84-.013 2.847-.021.767-2.247.767-2.247 3.676-.02 3.67-.014.752 2.26.76 2.268 3.02.02 3.013.014-.09-.22c-.048-.125-1.672-4.501-3.614-9.714l-3.517-9.492H86.89l-3.482 9.485zm7.27 1.631c-1.424.007-2.606.007-2.62-.013-.013-.014.567-1.743 1.293-3.844.718-2.109 1.313-3.844 1.32-3.865 0-.02.587 1.7 1.299 3.83l1.299 3.872-2.592.02zM104.967 13.862v9.713h5.736l.014-3.788.02-3.782 4.133-.02 4.125-.014v-3.734h-8.292l.014-2.164.02-2.157 4.305-.02 4.298-.014V4.149H104.967v9.713zM123.556 13.862v9.713h14.788v-3.733H129.153V15.625H137.722v-3.733H129.153l.014-1.991.021-1.985 4.443-.02 4.436-.014V4.149h-14.511v9.713zM154.375 13.862v9.713h14.511v-4.493h-8.706V4.149h-5.805v9.713zM183.674 13.862v9.713h5.044l.014-7.46.021-7.459 2.778 7.44 2.777 7.445 4.25.02 4.257.014V4.15h-4.976l-.013 7.515-.021 7.508-2.806-7.495-2.798-7.494-4.264-.02-4.263-.014v9.713zM207.998 13.862v9.713H222.785v-3.733l-4.574-.014-4.582-.02v-4.149l4.305-.02 4.298-.014v-3.733h-8.637l.014-1.991.02-1.985 4.478-.02 4.471-.014V4.149h-14.58v9.713z" fill="#fff"/><path d="M4.647 8.234c-.352.615-.636 1.12-.622 1.134.014.007.394.131.85.276 7.809 2.413 15.265 7.135 20.786 13.15 1.195 1.306 2.619 3.152 4.947 6.402l.339.477.705-.788a31.2 31.2 0 00.877-1.003l.173-.221-.601-.885c-1.886-2.765-3.904-5.158-6.502-7.695-5.273-5.15-11.65-9.05-18.79-11.497-1.685-.574-1.409-.657-2.162.65z" fill="#E3222A"/><path d="M2.76 11.49c-.158.277-.441.76-.621 1.079-.187.31-.339.601-.339.629 0 .034.208.131.47.214 2.495.816 5.819 2.316 8.382 3.768a47.314 47.314 0 019.979 7.605c1.644 1.638 2.39 2.502 3.883 4.493l1.347 1.79-.165.146c-.097.076-.56.463-1.03.857-4.982 4.19-11.388 7.564-17.628 9.271-.449.125-.801.242-.787.27.006.02.304.546.656 1.154l.636 1.12.463-.138c3.724-1.085 9.114-3.443 12.279-5.378a53.362 53.362 0 006.06-4.335c1.016-.844 2.73-2.406 2.84-2.586.076-.124-.698-1.327-1.9-2.931-5.825-7.799-13.841-13.772-22.942-17.104-.635-.228-1.188-.422-1.223-.422-.041 0-.2.228-.36.498zM172.756 17.768v5.807H178.491V11.961H172.756v5.807z" fill="#fff"/><path d="M17.003 25.552c-1.403 1.189-4.084 3.042-6.047 4.176-2.619 1.514-6.101 3.09-8.686 3.94-.262.083-.47.173-.47.208 0 .034.277.532.615 1.12.546.933.636 1.057.788 1.044.221-.014 2.35-.81 3.71-1.39 1.39-.588 4.105-1.963 5.425-2.738 1.39-.816 3.58-2.274 4.768-3.166 1.168-.878 2.28-1.777 2.28-1.846 0-.07-1.81-1.735-1.879-1.728-.027 0-.256.172-.504.38zM20.767 28.878c-.152.131-.836.664-1.52 1.182-4.346 3.263-9.031 5.67-14.304 7.342-.49.16-.905.297-.919.311-.048.049 1.258 2.247 1.334 2.247.166 0 2.77-.906 3.876-1.348 3.718-1.486 6.966-3.242 10.29-5.558 1.064-.747 3.158-2.358 3.192-2.468.02-.063-1.527-1.909-1.63-1.943-.021-.007-.166.097-.319.235zM62.195 36.123v5.496h160.522V30.627H62.195v5.496zm104.266-2.199c-.11.339-.29.781-.394.989-.165.339-.214.38-.421.4-.2.022-.228.008-.187-.103.049-.117.332-1.23.415-1.624.034-.16.083-.187.339-.215.158-.014.324-.028.373-.034.048-.007.007.214-.125.587zm-90.363-.11c.552.117.96.36 1.354.78.49.547.657 1.003.657 1.84 0 1.058-.36 1.784-1.147 2.288-.498.325-.996.436-1.776.394-1.341-.062-2.28-.898-2.495-2.198-.228-1.438.587-2.766 1.9-3.084a3.684 3.684 0 011.507-.02zm23.26.096l.358.111v.518c0 .478-.013.519-.117.478-.394-.166-1.271-.325-1.672-.298-.532.035-.719.2-.684.602.027.31.235.435 1.03.629 1.374.339 1.72.657 1.72 1.57-.007.85-.408 1.368-1.21 1.548-.497.11-1.692.048-2.176-.118l-.38-.131-.02-.567-.022-.574.298.125c.753.325 1.603.415 2.038.235.387-.166.442-.726.097-.906-.076-.041-.47-.152-.87-.249-1.32-.31-1.694-.643-1.694-1.472 0-.865.422-1.383 1.292-1.604.367-.09 1.569-.028 2.011.103zm32.511.09c1.058.498 1.631 1.653 1.438 2.883-.139.927-.636 1.618-1.431 2.012-.38.187-.463.2-1.237.2-.787 0-.85-.013-1.292-.22a3.153 3.153 0 01-.739-.505c-.947-.982-.995-2.731-.097-3.734.601-.67 1.237-.912 2.287-.87.532.027.719.068 1.071.234zm7.304-.076l.38.125.021.546c.021.498.007.54-.104.49-.642-.269-1.589-.345-2.149-.186-.38.118-.877.567-.988.899-.186.56-.069 1.348.263 1.797.29.387.656.533 1.368.533.871 0 .864.007.864-.623v-.518H137.653v-.899h2.142V38.722l-.29.131c-.781.34-2.218.367-2.902.056a2.908 2.908 0 01-1.272-1.21c-.186-.38-.2-.45-.2-1.265 0-.81.014-.885.193-1.23a2.633 2.633 0 011.742-1.377c.476-.117 1.624-.069 2.107.097zm9.156-.027l.346.09.02.525.021.525-.435-.138c-.56-.173-1.341-.235-1.659-.131-.449.152-.511.67-.11.933.09.055.477.18.864.276.891.222 1.216.388 1.451.747.172.25.193.353.186.809 0 .602-.096.843-.477 1.168-.373.332-.884.45-1.755.415-.435-.02-.891-.083-1.126-.159l-.401-.131v-.54c0-.297.021-.539.055-.539.028 0 .208.063.394.132 1.189.45 2.225.283 2.163-.353-.027-.318-.29-.463-1.133-.65-1.278-.283-1.652-.629-1.645-1.52.007-.38.042-.554.173-.789.194-.352.643-.663 1.099-.76.394-.083 1.513-.028 1.969.09zm15.085.02l.359.118v1.078l-.29-.103c-1.444-.519-2.695.02-2.799 1.21-.124 1.327.899 2.122 2.26 1.776.249-.062.546-.173.67-.249l.228-.131v1.148l-.255.11c-.477.208-.906.27-1.59.242-.767-.034-1.209-.2-1.734-.643-.815-.698-1.078-2.274-.553-3.311.325-.643 1.064-1.203 1.783-1.355.442-.09 1.486-.035 1.921.11zm7.995-.02l.345.09.021.525.021.525-.435-.131c-1.03-.325-1.928-.228-2.025.207-.104.477.055.595 1.147.871 1.119.284 1.437.519 1.589 1.197.194.83-.262 1.61-1.078 1.845-.532.16-1.748.111-2.315-.09l-.38-.13-.02-.554-.021-.553.567.194c1.064.359 1.851.318 2.059-.111.221-.456-.076-.691-1.147-.926-.719-.16-1.12-.34-1.327-.602-.401-.511-.339-1.459.124-1.991.139-.159.546-.366.885-.456.338-.083 1.541-.028 1.99.09zM68.172 34.96c.338.623.636 1.127.656 1.12.021 0 .318-.505.664-1.12l.629-1.12.628-.02c.353-.007.636-.007.636.013 0 .014-.45.768-1.002 1.673l-1.002 1.646v1.839h-1.106v-1.86l-1.002-1.638a66.759 66.759 0 01-1.001-1.66c0-.02.29-.02.635-.014l.636.021.629 1.12zm13.04.588c.02 1.61.034 1.77.158 1.991.207.352.525.498 1.05.47.34-.02.47-.062.615-.194.394-.373.408-.449.429-2.302l.028-1.707h1.105l-.027 1.852-.021 1.846-.228.47c-.408.816-1.127 1.203-2.163 1.141-.898-.055-1.534-.463-1.887-1.224-.13-.297-.145-.456-.165-2.205l-.021-1.88h1.105l.021 1.742zm8.208-1.666c.65.103.982.325 1.217.788.159.332.18.442.152.85-.042.533-.18.858-.519 1.162l-.235.214.553 1.01c.311.553.56 1.023.56 1.043 0 .021-.27.042-.601.042h-.608l-.484-.92-.484-.912-.532-.021-.539-.02v1.873h-1.105V33.807h1.091c.595 0 1.286.034 1.534.076zm15.977 2.516a462.617 462.617 0 011.299 2.572c0 .014-.27.02-.608.02h-.608l-.194-.449-.193-.449h-2.274l-.207.45-.214.449h-1.161l.456-.92c.255-.498.829-1.666 1.278-2.592.74-1.528.829-1.68.974-1.66.132.014.367.436 1.452 2.58zm6.827-2.108v.484l-1.396.013-1.403.021v1.245l1.092.02 1.085.021v.885l-1.085.02-1.092.022-.021.981-.02.989H108.285V33.807h3.939v.484zm5.597 0v.484h-2.764v1.106h2.419v.968h-2.419V38.024h2.833v.968h-3.939V33.807h3.87v.484zm6.357 1.624v2.109h2.557v.968h-3.662V33.807h1.105v2.108zm19.003.484v2.593h-1.105V33.807h1.105v2.592zm11.402-2.108v.484h-1.59V38.992h-1.105V34.775h-1.589v-.968h4.284v.484zm2.833 2.108v2.593h-1.106V33.807h1.106v2.592zm23.156-2.371c.214.097.456.249.539.339.649.684.635 1.922-.021 2.578-.421.429-.85.56-1.783.553h-.746v1.494h-1.106V33.786l1.369.035c1.278.027 1.382.041 1.748.207zm5.728 2.385l1.313 2.579h-1.216l-.221-.45-.221-.449h-2.267l-.186.45-.194.449h-.58c-.311 0-.574-.014-.574-.028 0-.034 2.287-4.673 2.446-4.97.235-.43.311-.326 1.7 2.42zm5.819-2.468c.649.221.974.726.974 1.486 0 .56-.159.94-.511 1.245l-.222.186.215.422c.117.235.373.72.566 1.065l.353.643h-1.237l-.498-.933-.49-.934h-1.03v1.867h-1.106v-5.2l1.369.035c.822.021 1.465.07 1.617.118zm6.827.346v.477l-.809.02-.815.021-.021 2.088-.014 2.095h-1.036l-.014-2.095-.021-2.088-.808-.02-.816-.021v-.961h4.354v.484zm3.586 1.05l1.562 1.542.021-1.541.013-1.535h1.037V38.992h-.18c-.138 0-.518-.325-1.707-1.487l-1.534-1.48-.02 1.48-.014 1.487h-1.106V33.807h.18c.145 0 .504.318 1.748 1.535zm8.783-1.05v.484l-1.361.013-1.369.021-.02.533-.021.539h2.425v.968l-1.188.013-1.196.021-.02.567-.021.574h2.84v.968h-3.939V33.807h3.87v.484zm4.837-.346c.297.11.663.373.795.58.186.284.262.879.172 1.314-.062.318-.145.464-.394.72l-.31.324.179.346c.097.187.346.663.56 1.05l.387.713h-1.23l-.491-.92-.483-.912-.526-.021-.525-.02v1.873h-1.105v-5.2l1.368.029c.85.02 1.451.069 1.603.124z" fill="#fff"/><path d="M74.736 34.906c-1.03.463-1.23 2.053-.353 2.82.705.623 1.956.415 2.37-.394.47-.92.145-2.04-.704-2.426-.36-.166-.954-.166-1.313 0zM129.947 34.906c-.954.442-1.216 1.86-.498 2.682.774.885 2.308.574 2.633-.539.366-1.217-.338-2.274-1.492-2.274-.208 0-.484.055-.643.13zM87.899 35.452v.698l.38.042c.45.062.906 0 1.12-.138.208-.139.332-.56.235-.81-.124-.317-.373-.428-1.085-.456l-.65-.027v.691zM103.572 36.448l-.325.712.664.02c.36.007.678.007.691-.013.042-.042-.608-1.425-.663-1.425-.028 0-.194.319-.367.706zM178.594 34.858c-.021.055-.028.456-.021.892l.021.788.532.02c.643.021.961-.09 1.162-.414.248-.415.138-1.017-.235-1.21-.298-.16-1.404-.214-1.459-.076zM184.475 36.406c-.179.408-.311.747-.297.768.021.013.332.013.698.007l.664-.021-.339-.712a15.353 15.353 0 00-.366-.747c-.021-.014-.18.304-.36.705zM190.238 35.459v.677l.215.049c.878.173 1.514-.132 1.514-.72 0-.504-.325-.69-1.224-.69h-.505v.684zM214.286 35.459v.677l.214.049c.878.173 1.514-.132 1.514-.72 0-.504-.325-.69-1.223-.69h-.505v.684z" fill="#fff"/></svg>