<svg width="98" height="125" fill="none" xmlns="http://www.w3.org/2000/svg"><path d="M89.518 0H16C7.164 0 0 7.163 0 16v108.932s55.36 3.549 85.395-40.461C111.11 46.79 89.518 0 89.518 0z" fill="url(#paint0_linear_59_255)"/><path d="M35.534 28.176l-.215.177-.027 7.066-.018 7.067h-3.27c-3.082 0-3.28.009-3.478.176l-.215.177v3.166c0 3.13 0 3.166.197 3.361.243.251.674.27.926.038.17-.158.18-.279.18-2.851v-2.674H33.835v1.615c0 1.662.072 2.127.36 2.285.278.148.458.111 1.15-.251l.655-.344.647.344c.71.38.764.39 1.078.241.369-.176.423-.445.423-2.219v-1.671h4.132V56.97H29.614v-2.674c0-2.433-.017-2.693-.152-2.832-.297-.27-.611-.288-.89-.037l-.26.232-.027 2.656-.027 2.655H20.44l-.215.233c-.225.222-.225.241-.225 1.903s0 1.68.225 1.904c.206.223.26.232 1.392.232h1.168v1.486h-1.168c-1.132 0-1.186.009-1.392.232-.225.223-.225.241-.225 1.885 0 1.541.018 1.68.189 1.913l.18.241h21.167l.188-.214c.261-.287.252-.668-.026-.947l-.216-.232H21.348v-1.486h43.305v1.486H43.98l-.216.232c-.288.288-.297.687-.018.957l.207.204H65.632l.18-.241c.17-.233.188-.372.188-1.913 0-1.644 0-1.662-.224-1.885-.207-.223-.26-.232-1.393-.232h-1.168v-1.486h1.168c1.132 0 1.186-.01 1.393-.232.224-.223.224-.242.224-1.904s0-1.68-.224-1.903l-.216-.233H57.735l-.018-7.066-.027-7.066-.216-.177c-.198-.167-.395-.176-3.477-.176h-3.261l-.027-3.12-.027-3.12-.252-.223c-.305-.27-.503-.279-.817-.028l-.234.186v6.305H36.621V29.393H40.844v3.454l.26.27c.144.148.324.269.405.269.08 0 .44-.158.808-.344l.674-.343.737.362c.683.334.755.343.97.223.405-.242.459-.474.459-2.248v-1.643H49.379v2.21c0 2.108.01 2.228.18 2.386.251.232.683.214.925-.037.198-.195.198-.241.198-2.897v-2.702l-.216-.177C50.27 28.01 50.008 28 43 28s-7.268.01-7.466.176zm8.275 2.285v1.077l-.27-.149a.989.989 0 00-.988 0c-.126.075-.252.13-.288.14-.044 0-.071-.483-.071-1.068v-1.068h1.617v1.068zM36.8 44.937v1.059l-.404-.121c-.378-.12-.593-.102-1.051.093-.153.065-.162-.019-.162-1.012v-1.077H36.8v1.058zm11.05.557c0 1.662.073 2.127.36 2.285.27.148.467.111 1.168-.242l.674-.334.692.353c.62.315.71.334.952.232.413-.177.467-.418.467-2.238v-1.671H56.387V56.97H43.719V43.88h4.133v1.615zm2.966-.538c0 .761-.027 1.049-.1 1.003-.34-.214-.835-.214-1.356.009-.153.065-.161-.019-.161-1.012v-1.077h1.617v1.077zm13.836 14.151v.743H21.348v-1.486h43.305v.743zm-36.297 2.879v.743H24.134v-1.486H28.355v.743zm27.941 0v.743H29.703v-1.486h26.594v.743zm5.57 0v.743H57.645v-1.486h4.222v.743z" fill="#000875"/><path d="M39.24 54.287v-2.092H32.44M53.831 54.287v-2.092h-6.883M46.494 39.29v-2.093h-6.801" stroke="#000875" stroke-width="1.705" stroke-miterlimit="10"/><defs><linearGradient id="paint0_linear_59_255" x1="97.873" y1="1.563" x2="32.133" y2="2.166" gradientUnits="userSpaceOnUse"><stop stop-color="#FF7268"/><stop offset="1" stop-color="#FE9C6B"/></linearGradient></defs></svg>