<svg width="98" height="125" fill="none" xmlns="http://www.w3.org/2000/svg"><path d="M89.518 0H16C7.163 0 0 7.163 0 16v108.932s55.36 3.549 85.395-40.461C111.11 46.79 89.518 0 89.518 0z" fill="url(#paint0_linear_59_203)"/><g clip-path="url(#clip0_59_203)"><path d="M63.295 78.533c-.966 0-1.407-.275-1.964-.622-.635-.396-1.355-.845-2.741-.845-1.387 0-2.106.45-2.74.845a8.315 8.315 0 01-.432.258l5.161-10.308a.733.733 0 00-.292-.965l-4.771-2.723v-15.71a.734.734 0 00-.735-.733h-6.61v-5.868a.734.734 0 00-.733-.733h-5.876a.734.734 0 00-.734.733v5.868h-6.61a.734.734 0 00-.734.733v15.71l-4.77 2.722a.732.732 0 00-.292.965l5.167 10.322a8.081 8.081 0 01-.458-.271c-.635-.396-1.354-.845-2.74-.845-1.384 0-2.103.45-2.738.845-.555.348-.995.622-1.958.622-.964 0-1.402-.274-1.959-.622-.634-.396-1.352-.845-2.736-.845v1.467c.963 0 1.402.275 1.958.622.634.396 1.352.845 2.737.845s2.103-.449 2.738-.845c.555-.347.995-.622 1.959-.622.963 0 1.403.275 1.96.622.635.396 1.353.845 2.74.845 1.384 0 2.104-.449 2.738-.845.556-.347.995-.622 1.96-.622.964 0 1.404.275 1.96.622.512.32 1.086.67 2.015.794V80h1.469v-.053c.916-.127 1.485-.475 1.993-.792.559-.347.998-.622 1.963-.622.963 0 1.403.275 1.959.622.634.396 1.353.845 2.739.845 1.385 0 2.105-.449 2.74-.845.556-.347.997-.622 1.962-.622s1.406.275 1.963.622c.635.396 1.355.845 2.742.845 1.386 0 2.107-.449 2.741-.845.558-.347.998-.622 1.964-.622v-1.467c-1.386 0-2.107.45-2.741.845-.558.347-.998.622-1.964.622zM46.703 42.596v1.467h-4.406v-1.467h4.406zm-4.406 2.933h4.406v2.2h-4.406v-2.2zm-7.344 3.667h19.094v14.139l-9.183-5.24c-.025-.015-.052-.021-.078-.033-.033-.014-.065-.031-.1-.04-.01-.003-.02-.002-.03-.005a.726.726 0 00-.346.005l-.017.008a.732.732 0 00-.157.064l-9.183 5.24V49.197zm7.576 28.715c-.635-.396-1.354-.845-2.74-.845-1.384 0-2.104.45-2.738.845-.492.308-.895.558-1.65.611l-5.356-10.697 13.72-7.83v18.47c-.503-.1-.842-.308-1.236-.554zm6.66-.845c-1.385 0-2.105.45-2.739.845-.388.243-.723.447-1.216.55V59.995l13.72 7.83-5.356 10.698c-.767-.05-1.173-.3-1.67-.612-.634-.396-1.353-.845-2.738-.845z" fill="#000875"/><path d="M51.109 55.797V52.13a.734.734 0 00-.735-.733h-11.75a.734.734 0 00-.734.733v3.667c0 .405.33.734.734.734h11.75a.734.734 0 00.735-.734zm-5.14-2.933v2.2H43.03v-2.2h2.937zm-6.61 0h2.203v2.2h-2.203v-2.2zm10.281 2.2h-2.203v-2.2h2.203v2.2zM48.172 63.131h-1.469v1.467h1.47v-1.467zM51.11 64.598h-1.47v1.467h1.47v-1.467zM54.047 66.065h-1.469v1.467h1.469v-1.467zM42.297 63.131H40.83v1.467h1.468v-1.467zM39.359 64.598H37.89v1.467h1.469v-1.467zM36.422 66.065h-1.47v1.467h1.47v-1.467z" fill="#000875"/><path d="M41.68 38.327v-1.173c0-1.687 1.395-3.154 3.158-3.154H67.31" stroke="#000875" stroke-width="1.53" stroke-miterlimit="10"/><path d="M49.246 38.327v-.293c0-.807.66-1.394 1.395-1.394h6.683M65.4 36.64H59.38" stroke="#000875" stroke-width="1.53" stroke-miterlimit="10"/></g><defs><linearGradient id="paint0_linear_59_203" x1="97.872" y1="1.563" x2="32.132" y2="2.166" gradientUnits="userSpaceOnUse"><stop stop-color="#FF7268"/><stop offset="1" stop-color="#FE9C6B"/></linearGradient><clipPath id="clip0_59_203"><path fill="#fff" transform="translate(19 30)" d="M0 0h50v50H0z"/></clipPath></defs></svg>