<svg width="98" height="125" fill="none" xmlns="http://www.w3.org/2000/svg"><path d="M89.518 0H16C7.164 0 0 7.163 0 16v108.932s55.36 3.549 85.395-40.461C111.11 46.79 89.518 0 89.518 0z" fill="url(#paint0_linear_59_230)"/><path d="M22 43.773v2.461H23.231v-3.691H47.84l.016 5.594.025 5.603.599.024.59.025V41.312H22v2.461z" fill="#000875"/><path d="M45.379 44.388v.615h1.23v-1.23h-1.23v.615zM50.301 45.618v.616h6.768l.18.467c.098.263.205.542.238.615.05.14-.156.148-3.568.148H50.3l.017 3.749.024 3.757 5.332.04 5.332.042.886.451.878.451V57.307H60.309v3.446l1.23.615 1.23.615V63.46h-3.732l-.287-.23c-.828-.672-1.64-.96-2.748-.96-1.107 0-1.92.288-2.748.96l-.287.23h-3.896v-8.449H47.84v8.449H33.033l-.286-.23c-.829-.672-1.641-.96-2.748-.96-1.108 0-1.92.288-2.748.96-.255.205-.345.23-.92.23h-.639v-3.035h-2.46v-12.96H22V67.15h3.732l.107.435c.41 1.731 1.968 3.06 3.79 3.224a4.236 4.236 0 003.888-1.838c.36-.525.705-1.345.705-1.673 0-.14.172-.148 4.102-.148h4.101v-1.23h-4.101c-3.93 0-4.102-.008-4.102-.148 0-.09-.074-.36-.156-.615l-.164-.468h18.195l-.164.468c-.082.254-.156.525-.156.615 0 .14-.173.148-4.102.148h-4.101v1.23H51.737l.106.427c.41 1.739 1.969 3.068 3.79 3.232a4.236 4.236 0 003.888-1.838c.361-.525.706-1.345.706-1.673 0-.14.106-.148 1.887-.148H64V55.216l-1.296-.648-1.296-.648-.443-1.14c-.246-.632-.468-1.157-.492-1.173-.082-.05-1.066.393-1.066.484 0 .049.13.418.287.82.155.402.287.763.287.804 0 .033-1.895.057-4.2.049l-4.208-.025-.025-2.526-.016-2.519 3.256.017 3.257.025.393.984.419 1.058c.033.099 1.124-.295 1.124-.402 0-.04-.468-1.271-1.042-2.731l-1.034-2.642h-7.604v.615zM62.77 59.564c0 .566-.017 1.025-.041 1.025-.025 0-.304-.131-.615-.287l-.575-.287V58.538H62.77v1.026zM24.46 62.558v.902h-1.23V61.655H24.462v.903zm6.784 1.19c.632.286 1.264.918 1.559 1.55.197.426.23.606.23 1.238 0 .64-.033.804-.23 1.23-.303.649-.935 1.28-1.567 1.576-.426.197-.607.23-1.238.23-.64 0-.804-.034-1.23-.23-.649-.304-1.28-.936-1.576-1.567-.197-.427-.23-.607-.23-1.239 0-.64.033-.804.23-1.23.394-.845 1.222-1.542 2.084-1.764.533-.131 1.443-.041 1.968.205zm26.004 0c.632.286 1.263.918 1.559 1.55.197.426.23.606.23 1.238 0 .64-.033.804-.23 1.23-.304.649-.935 1.28-1.567 1.576-.427.197-.607.23-1.239.23-.64 0-.804-.034-1.23-.23-.648-.304-1.28-.936-1.575-1.567-.197-.427-.23-.607-.23-1.239 0-.64.033-.804.23-1.23.393-.845 1.222-1.542 2.083-1.764.533-.131 1.444-.041 1.97.205zm-31.32 1.41c-.081.254-.155.525-.155.615 0 .14-.09.148-1.271.148H23.23v-1.23h2.863l-.164.467zm36.84.148v.615H61.5c-1.182 0-1.272-.008-1.272-.148 0-.09-.074-.36-.156-.615l-.164-.468h2.863v.616z" fill="#000875"/><path d="M29.383 66.537v.615h1.23V65.92h-1.23v.616zM55.387 66.537v.615h1.23V65.92h-1.23v.616zM45.379 48.08v1.845h1.23v-3.691h-1.23v1.846zM30.04 53.617v6.152H42.343V47.465H30.039v6.152zm3.937-3.076v1.845H38.324v-3.691H41.113v9.844H31.27v-9.844h2.708v1.846zm3.117-.616v1.23h-1.887v-2.46h1.887v1.23z" fill="#000875"/><path d="M38.653 56.693v.615h1.23v-1.23h-1.23v.615zM55.879 50.54v.616h1.23V49.925h-1.23v.616zM50.319 56.833l.024.599 1.214.024 1.206.025V56.242H50.294l.025.59zM24.461 58.538v.657H25.692V57.882H24.46v.656z" fill="#000875"/><path d="M48.554 36.001v-2H41.83M39.19 36.001v-2h-6.802M29.747 36.001v-2h-6.723" stroke="#000875" stroke-width="1.67" stroke-miterlimit="10"/><defs><linearGradient id="paint0_linear_59_230" x1="97.873" y1="1.563" x2="32.133" y2="2.166" gradientUnits="userSpaceOnUse"><stop stop-color="#FF7268"/><stop offset="1" stop-color="#FE9C6B"/></linearGradient></defs></svg>