<svg width="98" height="125" fill="none" xmlns="http://www.w3.org/2000/svg"><path d="M89.518 0H16C7.164 0 0 7.163 0 16v108.932s55.36 3.549 85.395-40.461C111.11 46.79 89.518 0 89.518 0z" fill="url(#paint0_linear_59_270)"/><path d="M42.22 52.297c.703-4.453 1.172-13.125.703-15.47 0-.077.079-.155.157-.155h12.187c.078 0 .156.078.156.156-.39 2.812.079 11.25.704 15.312M26.752 62.531v-8.516c0-.078.078-.156.156-.156h31.875c.078 0 .156.078.156.156v8.516M43.626 40.578h11.407M42.845 43.312h12.578" stroke="#000875" stroke-width="1.63" stroke-miterlimit="10"/><path d="M30.111 57.218v1.954h6.563M39.252 57.218v1.954h6.64M48.47 57.218v1.954h6.563M60.814 65.187v-2.656H25.19v2.656M35.268 52.297l.625-11.094h2.187l.625 10.937M29.33 52.297l.625-11.094h2.188l.703 10.937M23.236 65.187h20.39M62.768 65.187h-8.985M52.455 35.343v-1.25c0-1.796-1.485-3.359-3.36-3.359H25.19" stroke="#000875" stroke-width="1.63" stroke-miterlimit="10"/><path d="M44.406 35.343v-.312c0-.86-.703-1.484-1.484-1.484h-7.11M27.22 33.547h6.406" stroke="#000875" stroke-width="1.63" stroke-miterlimit="10"/><defs><linearGradient id="paint0_linear_59_270" x1="97.873" y1="1.563" x2="32.133" y2="2.166" gradientUnits="userSpaceOnUse"><stop stop-color="#FF7268"/><stop offset="1" stop-color="#FE9C6B"/></linearGradient></defs></svg>