<svg width="48" height="48" fill="none" xmlns="http://www.w3.org/2000/svg"><path d="M16.5 33.103v8.174c0 .794.644 1.437 1.438 1.437h23c.793 0 1.437-.643 1.437-1.437v-34.5c0-.794-.644-1.438-1.438-1.438h-5.75" stroke="#000875" stroke-width="1.438"/><path d="M27.857 37.929h11.25v-1.5h-11.25v1.5zM24.857 37.929h1.5v-1.5h-1.5v1.5zM21.857 37.929h1.5v-1.5h-1.5v1.5zM18.857 37.929h1.5v-1.5h-1.5v1.5zM6 43.072h1.5v-1.5H6v1.5zM9.429 43.072h1.5v-1.5h-1.5v1.5zM12.857 43.072h1.5v-1.5h-1.5v1.5zM6 8.018v4.018h5.036V17.929H6v13.5h11.679v-10.49l-1.533-1.505-1.526-1.505H12.643V12.036h14.143V17.929H21.75v13.5h11.679v-10.49l-1.533-1.505-1.526-1.505H28.393V12.036h5.036V4H6v4.018zm25.821 0v2.41H7.607v-4.82h24.214v2.41zM15.011 20.59l1.06 1.06v8.17H7.607V19.536H13.955l1.056 1.055zm15.75 0l1.06 1.06v8.17h-8.464V19.536H29.705l1.056 1.055z" fill="#000875"/><path d="M9.16 8.018v.803h1.661V7.214h-1.66v.804zM12.375 8.018v.803h1.66V7.214h-1.66v.804zM15.59 8.018v.803h1.66V7.214h-1.66v.804zM19.393 8.018v.803h10.821V7.214H19.393v.804zM9.252 22.627c-.022.016-.038.38-.038.803v.766h5.255l-.015-.792-.017-.788-2.576-.016c-1.415-.005-2.593.005-2.61.027zM9.252 25.841c-.022.016-.038.38-.038.804v.766h5.255l-.015-.793-.017-.788-2.576-.016c-1.415-.005-2.593.006-2.61.027zM25.002 22.627c-.022.016-.038.38-.038.803v.766h5.255l-.015-.792-.017-.788-2.576-.016c-1.415-.005-2.593.005-2.61.027zM25.002 25.841c-.022.016-.038.38-.038.804v.766h5.255l-.015-.793-.017-.788-2.576-.016c-1.415-.005-2.593.006-2.61.027z" fill="#000875"/></svg>