<svg width="48" height="48" fill="none" xmlns="http://www.w3.org/2000/svg"><path d="M46.433 17.71c0-1.171-.491-2.272-1.384-3.099a.75.75 0 00-.76-.146 4.135 4.135 0 00-.695-2.323V3.23a.66.66 0 00-.438-.609.742.742 0 00-.272-.044v-.006H10.942c-.189 0-.37.07-.502.193l-8.517 7.898a.634.634 0 00-.209.465V38.77c0 .364.318.659.71.659h31.942a.767.767 0 00.272-.051.719.719 0 00.23-.143l8.518-7.897a.632.632 0 00.208-.466v-3.866a12.588 12.588 0 002.165-1.592c.893-.827 1.384-1.928 1.384-3.098a4.164 4.164 0 00-1.115-2.826 4.101 4.101 0 00.405-1.78zM35.527 21.85l-.71.658-1.42 1.317 1.005.93 1.42-1.316.709-.658 1.574-1.46c.338.489.52 1.058.52 1.652 0 .82-.344 1.589-.968 2.168l-.71.658-2.13 1.974 1.004.931 2.13-1.974.71-.659.154-.143c.338.489.52 1.058.52 1.653 0 .818-.344 1.588-.968 2.167-2.155 1.998-5.02 3.098-8.067 3.098h-3.032c-2.349 0-4.26-1.771-4.26-3.95 0-2.177 1.911-3.948 4.26-3.948h.832a.74.74 0 00.497-.189l7.375-6.733c.341.49.523 1.06.523 1.657 0 .818-.343 1.588-.968 2.167zm-1.455-11.382h-10.77l7.099-6.581h10.77l-7.099 6.581zm-5.678-6.581l-7.307 6.774a.632.632 0 00-.208.465v9.302l-1.025-.635a.753.753 0 00-.787 0l-1.737 1.073-1.735-1.073a.751.751 0 00-.788 0l-1.026.635V11.4l8.102-7.512h6.51zm-17.158 0h8.64l-7.099 6.581h-8.64l7.099-6.581zm-8.102 7.898h9.228v9.872c0 .243.144.466.374.58.23.115.512.102.729-.032l1.736-1.073 1.735 1.073a.753.753 0 00.788 0l1.736-1.073 1.735 1.073a.753.753 0 00.73.033.653.653 0 00.374-.58v-9.873h11.357v6.508l-5.847 5.339h-.541c-3.131 0-5.679 2.362-5.679 5.265 0 2.903 2.548 5.265 5.679 5.265H30.3c1.15 0 2.274-.151 3.356-.422v4.371H3.134V11.786zM42.174 30.6l-7.098 6.582v-3.873a12.923 12.923 0 004.294-2.63c.893-.827 1.384-1.927 1.384-3.097a4.16 4.16 0 00-1.119-2.828 4.09 4.09 0 00.41-1.78c0-1.17-.492-2.27-1.385-3.098a.748.748 0 00-.747-.148l.002-.044c0-1.17-.491-2.271-1.384-3.098a.75.75 0 00-1-.004l-.455.416V11.4l7.098-6.582V30.6zm2.581-6.116c-.354.328-.742.64-1.161.93V16.89l.9-.834c.338.489.52 1.058.52 1.652 0 .819-.344 1.588-.969 2.168a.624.624 0 000 .93.749.749 0 001.004 0l.005-.005.15-.138c.337.489.52 1.058.52 1.652 0 .82-.344 1.588-.969 2.168z" fill="#000875"/><path d="M26.84 25.714a2.842 2.842 0 00-2.84 2.84 2.842 2.842 0 002.84 2.839 2.842 2.842 0 002.838-2.84 2.842 2.842 0 00-2.839-2.839zm0 4.26a1.421 1.421 0 010-2.84 1.421 1.421 0 010 2.84zM17.33 41.17H6.683v1.42H17.33v-1.42zM20.17 41.17h-1.42v1.42h1.42v-1.42zM23.009 41.17h-1.42v1.42h1.42v-1.42zM25.848 41.17h-1.42v1.42h1.42v-1.42zM32.237 44.009H21.589v1.42h10.648v-1.42zM35.076 44.009h-1.42v1.42h1.42v-1.42zM37.915 44.009h-1.42v1.42h1.42v-1.42zM40.754 44.009h-1.42v1.42h1.42v-1.42zM39.335 40.46h-1.42v1.42h1.42v-1.42zM42.174 40.46h-1.42v1.42h1.42v-1.42zM45.013 40.46h-1.42v1.42h1.42v-1.42z" fill="#000875"/></svg>