<svg width="49" height="49" fill="none" xmlns="http://www.w3.org/2000/svg"><path d="M9.483 6.214h1.75v-1.75h-1.75v1.75zM5.983 6.214h1.75v-1.75h-1.75v1.75zM2.483 6.214h1.75v-1.75h-1.75v1.75z" fill="#000875"/><path d="M1.546 2.12c-.47.153-1.273.976-1.417 1.464-.172.575-.172 42.186 0 42.76.153.527.948 1.321 1.474 1.474.306.087 4.364.115 17.571.115 19.39 0 17.734.067 18.48-.766.23-.248.47-.631.527-.842.086-.277.115-3.263.115-11.848V23.012l3.627-3.646c4.067-4.087 3.981-3.982 3.981-5.312-.01-.851-.24-1.416-.823-2-.603-.593-1.149-.813-2.048-.823-1.158 0-1.426.163-3.216 1.933l-1.521 1.503v-5.35c0-3.847-.03-5.446-.115-5.714-.058-.21-.297-.593-.527-.842-.746-.832.92-.765-18.537-.756-12.279.01-17.332.039-17.571.115zm34.98 1.646c.229.22.238.278.238 1.531V6.59H1.545V5.297c0-1.253.01-1.31.24-1.53l.23-.24h34.28l.23.24zm.238 8.403v4.039l-2.297 2.296-2.296 2.297V18.504l-4.04-4.038-4.047-4.048H6.139v33.687h26.032V29.127l2.297-2.296 2.296-2.297v21.399l-.239.23-.23.239H2.015l-.23-.24-.24-.229V8.121h35.22v4.048zm-13.78 3.608v3.828H30.638V22.333l-6.077 6.077-6.077 6.077-1.014 3.043c-.555 1.675-.996 3.072-.967 3.101.029.029 1.426-.412 3.1-.967l3.044-1.014 3.991-3.99 4-4.001v11.915H7.671V11.949h15.312v3.828zm20.747-2.871c.613.373.871 1.196.556 1.799-.077.144-.422.536-.766.88l-.632.623-.976-.986-.986-.976.575-.584c.316-.326.708-.67.861-.766.373-.239.967-.23 1.368.01zm-16.68 2.68l2.488 2.488h-5.025v-2.489c0-1.368.01-2.488.03-2.488.009 0 1.138 1.12 2.506 2.489zm13.78.765l.958.957-9.025 9.025-9.015 9.015-.976-.986-.986-.976 8.996-8.996c4.948-4.948 9.015-8.996 9.044-8.996.029 0 .478.43 1.005.957zm-19.14 19.14l.948.958-.421.43c-.383.383-.556.47-1.857.91-.785.258-1.445.459-1.464.45-.01-.02.191-.67.45-1.455.42-1.254.526-1.484.88-1.838.22-.23.43-.411.46-.411.028 0 .478.43 1.004.957z" fill="#000875"/><path d="M9.968 24.965v.765h14.547V24.2H9.968v.765zM9.968 20.965v.765h14.547V20.2H9.968v.765zM9.968 29.558v.766h9.953V28.793H9.968v.765zM9.968 34.152v.766h6.125v-1.532H9.968v.766zM9.968 38.746v.765h4.593V37.98H9.969v.766zM16.483 17.215h1.75v-1.75h-1.75v1.75zM12.983 17.215h1.75v-1.75h-1.75v1.75zM9.483 17.215h1.75v-1.75h-1.75v1.75zM45.233 36.59V23.464h-1.75V36.59h1.75zM45.233 40.09v-1.75h-1.75v1.75h1.75zM45.233 43.59v-1.75h-1.75v1.75h1.75zM45.233 47.09v-1.75h-1.75v1.75h1.75z" fill="#000875"/></svg>