<svg width="48" height="48" fill="none" xmlns="http://www.w3.org/2000/svg"><path d="M46.02 13.821V2.571h-1.5v11.25h1.5zM46.02 16.821v-1.5h-1.5v1.5h1.5zM46.02 19.821v-1.5h-1.5v1.5h1.5zM46.02 22.821v-1.5h-1.5v1.5h1.5zM42.27 29.357v-11.25h-1.5v11.25h1.5zM42.27 32.357v-1.5h-1.5v1.5h1.5zM42.27 35.357v-1.5h-1.5v1.5h1.5zM42.27 38.357v-1.5h-1.5v1.5h1.5z" fill="#000875"/><path d="M4.572 6.228c-1.333.324-2.393 1.409-2.747 2.795-.095.377-.11 2.517-.11 16.561 0 17.872-.037 16.576.486 17.45.28.482.795.98 1.237 1.213.692.362.67.362 5.795.362 4.75 0 4.83 0 4.963-.15a.597.597 0 00-.03-.777l-.022-.023a.479.479 0 00-.338-.144l-4.64-.036c-4.432-.038-4.86-.046-5.095-.174a2.263 2.263 0 01-.994-.964l-.163-.3a.48.48 0 01-.058-.229v-16.19c0-15.551.008-16.327.133-16.667.28-.73.905-1.318 1.664-1.567.456-.15.663-.15 11.988-.15h11.321c.085 0 .135.096.086.165-.516.716-.737 1.673-.693 3 .023.926.118 1.13.538 1.13.479 0 .508-.084.56-1.41.036-.964.066-1.258.191-1.537a2.203 2.203 0 011.841-1.326c.84-.075 1.738.475 2.091 1.281.17.37.177.49.2 2.253l.02 1.382a.479.479 0 01-.478.486h-7.606c-7.673 0-8.1.008-8.38.144-.626.286-1.009.874-1.105 1.68l-.001.014a.479.479 0 01-.476.423h-1.084c-1.495 0-1.502 0-1.679.188-.103.098-.184.271-.184.377 0 .105.081.279.184.377.177.188.184.188 1.694.188h1.03c.265 0 .48.214.48.479V20.999a.479.479 0 01-.48.479h-1.03c-1.51 0-1.517 0-1.694.188-.235.234-.235.52 0 .754.177.188.184.188 1.694.188h1.03c.265 0 .48.214.48.479v5.823a.479.479 0 01-.48.479H13.8c-.818 0-1.48.03-1.62.083-.398.143-.508.595-.207.881.162.159.236.166 1.694.166h1.046c.264 0 .479.215.479.479V37.047a.479.479 0 01-.48.48h-1.03c-1.51 0-1.517 0-1.694.188-.22.218-.235.482-.044.723.14.18.162.18 1.686.203l1.081.016c.26.004.468.214.472.473l.023 1.81c.022 1.981.044 2.313.155 2.576.17.377.515.754.898.965l.186.104a.48.48 0 00.234.062l10.147.022c11.289.023 10.634.045 11.208-.437.147-.128.353-.4.456-.618l.143-.292a.479.479 0 00.049-.21v-10.71c0-10.789 0-10.819-.147-10.985-.2-.218-.59-.218-.78-.007-.133.15-.14.475-.178 10.91-.03 8.303-.059 10.782-.125 10.902a.702.702 0 01-.324.249c-.17.06-3.122.083-10.22.083-9.773 0-9.993 0-10.222-.15a.694.694 0 01-.316-.438c-.052-.21-.067-4.671-.06-14.519l.022-14.004c0-.136.058-.265.16-.356l.084-.076.098-.09a.479.479 0 01.325-.128h19.95c.129 0 .252.052.342.144l.073.074.077.08c.087.089.136.209.136.334v2.45c0 1.77.03 2.697.081 2.817.081.189.346.354.553.354.059 0 .191-.083.287-.188l.04-.04a.479.479 0 00.144-.342v-2.572c0-2.75 0-2.772-.177-3.157-.199-.437-.692-.904-1.068-1.01-.147-.037-1.001-.075-1.9-.075H34.38a.479.479 0 01-.479-.47l-.028-1.473c-.036-2.133-.066-2.336-.515-3.044-.464-.746-1.164-1.259-1.966-1.447-.42-.106-2.055-.12-13.44-.113-10.78.007-13.033.023-13.38.113z" fill="#000875" stroke="#000875" stroke-width=".2"/><path d="M7.54 14.282l-.789.791-.36-.376c-.288-.302-.413-.377-.604-.377a.518.518 0 00-.538.543c0 .21.103.346.656.904.508.512.7.663.861.663.162 0 .412-.211 1.26-1.07.927-.95 1.052-1.1 1.052-1.319 0-.316-.22-.55-.523-.55-.198 0-.36.12-1.016.791zM18.467 14.666c-.08.023-.22.053-.31.068-.25.06-.618.415-.765.754-.125.271-.14.535-.14 2.637 0 2.637.022 2.758.56 3.172l.272.218H35.64l.273-.218c.552-.422.567-.55.545-3.315l-.022-2.441-.229-.294a2.142 2.142 0 00-.478-.437c-.243-.151-.39-.151-8.682-.159-4.64-.007-8.498 0-8.579.015zm16.76 1.16c.133.076.14.182.14 2.223 0 1.176-.022 2.186-.044 2.253-.044.106-.854.12-8.461.12s-8.417-.014-8.461-.12c-.022-.067-.044-1.077-.044-2.253 0-1.959.007-2.147.132-2.215.177-.105 16.54-.113 16.738-.007zM5.25 19.654c-.17.083-.317.249-.428.468-.162.331-.17.391-.147 2.034.022 1.635.03 1.703.191 1.944.317.444.42.467 2.32.467 1.672 0 1.73-.008 1.974-.173.47-.317.508-.49.508-2.351s-.037-2.034-.508-2.35c-.243-.167-.302-.174-1.952-.174-1.473 0-1.738.015-1.959.135zm3.313 2.389v1.394H5.765v-2.788h2.799v1.394zM18.018 22.766c-.302.09-.67.52-.729.844-.03.136-.037.746-.022 1.349.022 1.266.073 1.394.655 1.703.302.165.39.173 1.48.15 1.274-.022 1.385-.06 1.738-.587.155-.234.162-.332.162-1.455 0-1.092-.014-1.228-.162-1.491-.272-.498-.574-.596-1.833-.588-.582 0-1.164.038-1.289.075zm2.18 1.99v.941H18.357v-1.883h1.84v.941zM22.93 22.849c-.552.301-.603.49-.581 1.982.022 1.145.037 1.303.169 1.484.317.43.479.475 1.804.475 1.421 0 1.613-.068 1.9-.64.162-.317.17-.415.147-1.508-.022-1.062-.037-1.19-.184-1.401-.339-.482-.456-.52-1.752-.543-1.12-.022-1.193-.015-1.503.151zm2.335 1.884l-.022.926-.899.023-.905.023v-1.892h1.848l-.022.92zM28.166 22.736c-.25.053-.722.565-.774.851-.03.136-.051.694-.051 1.236 0 .882.022 1.032.17 1.326.279.573.47.64 1.892.64 1.325 0 1.487-.045 1.804-.474.132-.181.147-.34.17-1.484.021-1.492-.03-1.68-.575-1.974-.295-.159-.405-.174-1.392-.166-.59.007-1.149.03-1.244.045zm2.12 2.02v.949l-.898-.023-.906-.023-.022-.926-.022-.92h1.848v.942zM33.158 22.766c-.103.046-.265.151-.353.241-.346.332-.383.498-.383 1.771 0 1.115.007 1.213.17 1.447.345.527.456.565 1.73.587 1.09.023 1.178.015 1.48-.15.604-.317.633-.415.633-1.907 0-1.205-.015-1.326-.154-1.514-.354-.49-.45-.52-1.746-.535-.7-.015-1.266.015-1.377.06zm2.21 1.99v.941H33.526v-1.883h1.84v.941zM5.227 27.596c-.17.105-.331.286-.427.482-.14.301-.147.437-.125 2.02.022 1.86.03 1.883.53 2.26.191.15.302.158 1.959.158 1.656 0 1.767-.008 1.958-.158.501-.377.508-.392.53-2.313.015-1.696.015-1.756-.147-2.042-.309-.535-.456-.573-2.341-.573-1.569 0-1.672.015-1.937.166zm3.336 2.396v1.431H5.764V28.56h2.799v1.432zM17.782 28.108c-.427.264-.53.626-.53 1.876 0 1.281.096 1.598.582 1.876.258.151.39.166 1.443.166 1.289 0 1.532-.06 1.826-.482.148-.218.162-.332.184-1.477.023-1.401-.036-1.627-.493-1.936-.236-.166-.324-.173-1.51-.173-1.133 0-1.28.015-1.502.15zm2.416 1.884v.904H18.357v-1.808h1.84v.904zM22.863 28.108c-.47.294-.53.49-.53 1.892 0 1.175.008 1.265.17 1.506.294.452.522.52 1.863.52 1.111 0 1.2-.007 1.428-.173.516-.354.552-.467.575-1.77.022-1.123.014-1.199-.148-1.515-.287-.55-.478-.61-1.9-.61-1.082 0-1.244.015-1.458.15zm2.416 1.884v.904H23.438v-1.808h1.84v.904zM27.952 28.078a1.214 1.214 0 00-.405.4c-.162.256-.17.353-.17 1.529 0 1.153.015 1.273.155 1.462.354.49.442.52 1.782.542 1.392.023 1.605-.03 1.907-.505.162-.24.17-.331.17-1.507 0-1.401-.06-1.597-.53-1.89-.214-.136-.376-.152-1.458-.152-.965 0-1.267.03-1.451.121zm2.334 1.914v.904h-1.84v-1.808h1.84v.904zM32.93 28.13c-.456.31-.515.536-.493 1.937.022 1.145.037 1.259.184 1.477.295.422.538.482 1.827.482 1.053 0 1.185-.015 1.443-.166.486-.278.582-.587.582-1.898 0-.965-.023-1.145-.148-1.41-.272-.542-.442-.594-1.885-.594-1.185 0-1.274.007-1.51.173zm2.438 1.862v.904h-1.84v-1.808h1.84v.904zM17.952 33.262c-.302.135-.612.52-.663.821-.03.143-.037.738-.022 1.341.022.995.037 1.108.191 1.334.317.452.508.505 1.82.505 1.045 0 1.207-.015 1.428-.151.523-.317.56-.43.582-1.831.022-1.447-.037-1.658-.545-1.951-.265-.159-.383-.174-1.429-.166-.78 0-1.215.03-1.362.098zm2.246 1.929v.904H18.357V34.286h1.84v.905zM22.922 33.292c-.515.286-.552.4-.574 1.846-.022 1.25-.015 1.303.147 1.56.332.504.538.565 1.863.565 1.377 0 1.576-.068 1.863-.64.162-.317.17-.408.148-1.523-.023-1.288-.052-1.386-.53-1.748-.185-.143-.325-.158-1.43-.18-1.089-.016-1.258-.008-1.487.12zm2.357 1.899v.904H23.438V34.286h1.84v.905zM28.04 33.262c-.338.15-.61.527-.662.904-.03.188-.037.768-.03 1.303.044 1.553.243 1.763 1.753 1.816 1.428.053 1.9-.098 2.209-.716.052-.098.081-.633.081-1.401 0-1.16-.007-1.25-.162-1.484-.31-.46-.545-.528-1.826-.528-.78.008-1.215.038-1.362.106zm2.246 1.929v.904h-1.84V34.286h1.84v.905zM32.996 33.307c-.17.09-.338.271-.427.452-.14.286-.147.437-.147 3.94v3.647l.17.249c.353.542.434.565 1.855.565 1.4 0 1.473-.023 1.834-.52.154-.203.154-.286.154-3.963s0-3.76-.154-3.963c-.354-.49-.442-.52-1.782-.535-1.112-.023-1.26-.008-1.503.128zm2.371 4.37v3.39h-1.84v-6.78h1.84v3.39zM5.618 35.56c-.369.075-.553.196-.752.474-.162.242-.169.31-.191 1.944-.022 1.643-.015 1.703.147 2.027.295.573.42.61 2.327.61 1.826 0 2.01-.037 2.305-.46.177-.255.177-.278.177-2.079 0-1.733-.008-1.83-.155-2.034-.346-.467-.508-.512-2.128-.527-.81-.008-1.59.015-1.73.045zm2.945 2.531v1.394H5.765v-2.788h2.799v1.394zM18.033 38.13c-.28.09-.552.353-.677.655-.148.339-.14 2.343 0 2.69.059.135.228.346.383.466l.272.219h1.274c1.414 0 1.495-.023 1.856-.565.154-.234.162-.324.162-1.47 0-1.145-.008-1.235-.162-1.468-.354-.528-.457-.566-1.738-.58-.633-.008-1.252.014-1.37.052zm2.165 1.996v.942h-1.84v-1.884h1.84v.942zM22.93 38.22c-.552.3-.603.49-.581 1.981.022 1.145.037 1.303.169 1.484.31.415.493.475 1.686.498 1.274.03 1.613-.053 1.944-.498.2-.263.2-.27.2-1.552 0-1.213-.008-1.303-.163-1.522-.339-.482-.456-.52-1.752-.542-1.12-.023-1.193-.015-1.503.15zm2.35 1.906v.942H23.438v-1.884h1.84v.942zM28.188 38.106c-.273.076-.567.347-.707.656-.11.256-.14.497-.14 1.364 0 .95.014 1.092.17 1.394.117.248.25.384.492.512.31.166.405.173 1.473.15 1.237-.022 1.422-.075 1.73-.497.133-.18.148-.339.17-1.484.022-1.492-.03-1.68-.574-1.974-.295-.158-.405-.173-1.392-.166-.59.008-1.141.03-1.222.045zm2.098 2.02v.95l-.898-.023-.906-.023-.022-.927-.022-.919h1.848v.942z" fill="#000875"/></svg>