<svg width="48" height="48" fill="none" xmlns="http://www.w3.org/2000/svg"><g clip-path="url(#clip0_59_420)" fill="#000875"><path d="M48 37.5V26.25h-1.5V37.5H48zM48 40.5V39h-1.5v1.5H48zM48 43.5V42h-1.5v1.5H48zM48 46.5V45h-1.5v1.5H48z"/><g clip-path="url(#clip1_59_420)"><path d="M9.064 3.539c-.431.14-1.17.898-1.303 1.347-.08.282-.106 3.073-.106 11.782v11.413H3.43V29.49h11.385l3.188-1.057 3.188-1.057 2.386.018 2.378.026-2.404 2.008c-2.193 1.823-2.43 2.052-2.66 2.51-.21.431-.246.607-.246 1.25 0 .67.026.801.264 1.224.52.942 1.462 1.47 2.518 1.391.82-.052 1.163-.246 2.625-1.479l1.277-1.065 3.24 3.249c2.95 2.959 3.24 3.267 3.24 3.54 0 .396-.404.801-.8.801-.265 0-.547-.255-3.03-2.73-1.506-1.505-2.774-2.73-2.827-2.73-.105 0-.915.81-.915.925 0 .044 1.074 1.154 2.377 2.466 2.149 2.148 2.378 2.413 2.378 2.677 0 .396-.405.801-.802.801-.264 0-.502-.211-2.324-2.025-1.119-1.119-2.07-2.026-2.123-2.026-.105 0-.915.81-.915.925 0 .044.757.837 1.673 1.761 1.488 1.497 1.673 1.717 1.673 1.973 0 .396-.405.801-.801.801-.247 0-.44-.15-1.489-1.189-1.074-1.065-1.215-1.25-1.356-1.682a2.143 2.143 0 00-1.435-1.417l-.52-.15-.15-.52a2.124 2.124 0 00-1.444-1.444l-.519-.15-.15-.519c-.3-1.013-1.268-1.638-2.35-1.532-.494.053-.512.053-.564-.168-.15-.59-1.216-1.268-1.99-1.268-.714 0-1.136.247-2.176 1.26-.995.968-1.312 1.426-1.409 2.034l-.052.317H3.429V38.648h4.226v2.606c0 1.797.036 2.73.106 2.977.14.484.872 1.215 1.356 1.356.264.079 1.409.105 4.033.105h3.663V44.283H9.496l-.212-.22-.22-.211V38.648h3.17l.388.3c.22.166.581.343.819.404.422.115.431.115.58.634a2.12 2.12 0 001.445 1.453l.52.15.15.52c.299 1.012 1.267 1.637 2.35 1.532.494-.053.511-.053.564.167.088.352.757.96 1.242 1.118.502.176.907.185 1.373.053.317-.097.353-.088.696.211.66.564 1.444.723 2.237.45.405-.141.986-.608 1.17-.943.08-.15.107-.14.538.08.925.475 1.92.343 2.624-.37.212-.203.405-.476.44-.6.053-.22.07-.22.564-.166.704.07 1.32-.15 1.814-.643.211-.203.405-.476.44-.599.053-.22.07-.22.564-.167 1.426.14 2.606-1.04 2.44-2.44l-.054-.422 1.03-.044c1.224-.044 1.506-.141 2.607-.854.476-.309.916-.529 1.048-.529h.238V43.852l-.22.211-.212.22h-7.317V45.692h3.68c4.254 0 4.254 0 4.888-.704.21-.23.431-.581.484-.775.07-.238.106-1.277.106-3.311v-2.959h4.226V36.534h-3.143c-2.299.01-3.24.035-3.461.115-.167.061-.616.326-.995.581-.986.66-1.18.713-2.739.713h-1.33l-1.796-1.796-1.796-1.797.564-.061c1.065-.123 2.122-.572 2.905-1.224l.256-.212-.414-.519a15.706 15.706 0 01-.432-.546c-.017-.018-.176.088-.36.229-1.577 1.242-3.567 1.162-5.029-.194l-.502-.466-1.673 1.408c-.924.775-1.814 1.462-1.981 1.541-.352.159-.872.115-1.198-.105-.528-.344-.722-1.145-.396-1.673.211-.361 4.887-4.236 5.53-4.597.96-.537 2.114-.687 3.126-.423.273.07 1.594.538 2.95 1.03l2.448.908 4.738.026 4.728.026V28.081H41.47V16.668c0-8.568-.027-11.509-.106-11.764-.053-.194-.273-.546-.484-.775-.687-.766.757-.704-16.353-.696-10.778.01-15.243.036-15.463.106zM39.84 5.054l.22.21v22.817h-3.399l-2.544-.934c-1.41-.51-2.81-.986-3.126-1.056-.45-.097-1.585-.124-5.319-.124h-4.746l-3.188 1.057-3.179 1.057H9.064V5.265l.22-.211.212-.22H39.629l.212.22zM15.942 35.293c.176.185.255.343.255.546 0 .255-.132.422-.951 1.241-.819.82-.986.951-1.242.951-.396 0-.801-.405-.801-.801 0-.255.132-.423.951-1.242s.986-.95 1.242-.95c.202 0 .36.079.546.255zm2.817 1.409c.177.185.256.343.256.546 0 .255-.15.449-1.303 1.593-1.145 1.154-1.339 1.304-1.594 1.304-.397 0-.802-.405-.802-.802 0-.255.15-.449 1.304-1.594 1.144-1.153 1.338-1.303 1.593-1.303.203 0 .361.08.546.256zm2.114 2.113c.176.185.255.343.255.546 0 .255-.15.45-1.303 1.594-1.145 1.153-1.338 1.303-1.594 1.303-.396 0-.801-.405-.801-.801 0-.256.15-.45 1.303-1.594 1.145-1.154 1.338-1.303 1.594-1.303.202 0 .36.079.546.255zm2.113 2.113c.176.185.256.344.256.546 0 .256-.133.423-.951 1.242-.82.819-.987.951-1.242.951-.396 0-.801-.405-.801-.801 0-.256.132-.423.95-1.242.82-.819.987-.951 1.242-.951.203 0 .361.08.546.255zm1.48 2.175c.264.335.237.705-.07 1.013-.327.326-.697.335-1.04.044l-.247-.22.529-.528c.29-.3.555-.538.581-.538.035 0 .15.106.247.23z"/><path d="M18.937 6.643v.723h10.125V5.92H18.937v.723zM10.259 10.259v.723H37.74V9.536H10.26v.723zM10.259 13.152v.723H37.74V12.43H10.26v.723zM10.259 16.045v.723H25.446V15.32H10.26v.724zM10.259 20.384v.723h8.678v-1.446h-8.679v.723zM29.062 20.384v.723h8.679v-1.446h-8.679v.723zM12.428 23.277V24h3.617v-1.446h-3.617v.723zM31.232 23.277V24h3.616v-1.446h-3.616v.723zM2.357 37.821v-11.25h-1.5v11.25h1.5zM2.357 40.821v-1.5h-1.5v1.5h1.5zM2.357 43.821v-1.5h-1.5v1.5h1.5zM2.357 46.821v-1.5h-1.5v1.5h1.5z"/></g></g><defs><clipPath id="clip0_59_420"><path fill="#fff" d="M0 0h48v48H0z"/></clipPath><clipPath id="clip1_59_420"><path fill="#fff" transform="translate(.857 .857)" d="M0 0h46.286v46.286H0z"/></clipPath></defs></svg>