<svg width="48" height="48" fill="none" xmlns="http://www.w3.org/2000/svg"><path d="M46.707 1.768a.692.692 0 00-.27-.047v-.007H20.32a.704.704 0 00-.5.206l-8.47 8.44a.7.7 0 00-.207.497V28.44c0 .388.315.703.706.703h26.117c.196 0 .372-.08.5-.207l8.47-8.439a.699.699 0 00.207-.497V2.418a.703.703 0 00-.436-.65zm-9.033 8.386h-7.18l7.059-7.033h7.18l-7.059 7.033zM35.557 3.12L28.29 10.36a.699.699 0 00-.207.497v6.423l-1.02-.678a.705.705 0 00-.783 0l-1.726 1.146-1.726-1.146a.708.708 0 00-.784 0l-1.02.678v-6.132l8.057-8.027h6.474zm-14.946 0h6.475l-7.059 7.033h-6.474L20.61 3.12zm16.65 24.615H12.555V11.56h7.058v7.033a.703.703 0 001.097.585l1.727-1.146 1.726 1.146a.705.705 0 00.783 0l1.726-1.146 1.726 1.146a.71.71 0 00.725.036.703.703 0 00.373-.62V11.56h7.765v16.176zm8.47-8.027l-7.059 7.033V11.148l7.06-7.033V19.71zM15.453 43.52c.4 0 .723-.324.723-.724h1.998l7.731 3.866a2.365 2.365 0 002.247-.072l15.775-9.203a2.36 2.36 0 00-1.596-4.37l-14.34 2.495-4.073-4.073a.72.72 0 00-.511-.212h-7.231c0-.4-.323-.724-.723-.724H1.714v1.447h10.123v10.123H1.714v1.446h13.739zm7.654-10.847l5.698 5.697a1.323 1.323 0 01-1.87 1.87l-3.74-3.74-1.023 1.023 3.74 3.74a2.75 2.75 0 001.958.81 2.772 2.772 0 002.768-2.768 2.75 2.75 0 00-.81-1.958l-.587-.585 13.337-2.32c.27-.048.54.027.748.202a.915.915 0 01-.128 1.494L27.424 45.34a.915.915 0 01-.872.027l-7.883-3.942a.72.72 0 00-.324-.076h-2.17v-8.677h6.932zm-8.377 9.4h-1.446V31.95h1.446v10.123zM5.374 13.654h1.687v1.687H5.374zM5.374 18.716h1.687v1.687H5.374zM5.374 23.777h1.687v1.687H5.374zM9.668 18.934V8.088H8.222v10.846h1.446zM9.668 21.826V20.38H8.222v1.446h1.446zM9.668 24.719v-1.446H8.222v1.446h1.446zM9.668 27.611v-1.446H8.222v1.446h1.446z" fill="#000875"/></svg>